<svg width="220" height="38" fill="none" viewBox="0 0 220 38" xmlns="http://www.w3.org/2000/svg">
  <g fill="#040404">
    <path d="M.02 36.553C.02 37.118-.153 38 .51 38c.314 0 1.222-.564 1.362-1.764.454-2.047 2.375-12.984 2.968-14.96 2.06-.353 7.474-3.176 7.474-8.433 0-1.34-1.013-2.364-2.48-2.364-2.444 0-4.575 4.41-5.203 5.54-.908 1.87-1.083 5.363-2.41 9.667-.524 2.329-1.851 6.951-2.2 10.867m9.884-24.592c.49 0 .873.953.873 1.517 0 2.435-3.981 6.245-5.587 6.245 0-1.87 2.374-7.762 4.714-7.762m10.979-.247c-.42 0-.838-.106-.873.565l-1.327 14.43c-.035.565.838.847 1.641.847.21 0 .559-1.411.559-2.646 3.143-5.222 6.251-10.126 15.052-12.49.314-.177.594-.106.594-.212.07-.811-1.257-1.058-1.816-.953-7.718 1.306-11.001 6.351-13.83 11.22.35-3.81.559-6.81.943-9.844-.035-.705-.384-.917-.943-.917M37.46 24.84c0 1.128.385 2.928 1.747 2.928.524 0 1.187-.565 1.187-1.059 0-.952-1.012-.635-1.012-3.07 0-3.598 3.317-9.879 3.317-11.995 0-.46-.489-.741-.908-.67-.838.176-1.641 1.657-1.85 2.892-1.433 5.01-2.48 9.139-2.48 10.973m4.191-20.924c0 1.094.874 2.153 1.921 2.153.35 0 .42-.036.42-.353s-.175-.6-.175-.953c0-.529.314-1.023.314-1.517 0-.706-.873-.74-1.327-.74-.594 0-1.152.67-1.152 1.41m11.033 23.147c.175.847.629 1.235 1.572 1.235 1.85-3.775 11.176-14.537 11.176-15.807 0-.635.035-.952-.63-.847-1.221.177-8.87 11.503-10.546 13.408-.629-2.011-1.118-6.069-1.292-12.984.244-.353.419-.565.419-1.023 0-.67-.315-.988-.943-.988-1.118 0-1.467 1.305-1.362 3.07 0 4.833.698 9.385 1.606 13.936m13.124-1.199c0 .67.49 1.905 1.292 1.905 3.143 0 7.893-12.032 9.535-12.49.663 1.587 1.292 10.232 6.46 10.232 4.157 0 10.792-8.962 13.516-12.385v-.105c0-.177-.559-.812-.733-.6-3.388 3.281-9.395 11.255-12.782 11.255-4.785 0-3.947-12.949-6.88-12.949-3.807 0-10.408 11.926-10.408 15.137m9.744-12.42v.247c-.838 1.023-2.864 4.551-3.283 5.292-.14.106-3.492 6.492-4.505 6.492h-.245c0-2.364 5.553-12.031 8.033-12.031"/>
    <path d="M93.524 27.062c.349.318.768.67 1.222.67.908 0 1.711-.776 2.27-1.446 0-.423-.314-.882-.664-.882-.454 0-.908.635-1.466.635-1.258 0-1.362-3.81-1.362-4.446 0-2.223.873-6.457 1.466-8.503l13.481-.247c.559 0 .908-.141.908-.882 0-.459-.349-.6-.663-.6h-6.182c-1.572-.14-2.969-.14-4.33-.14h-2.69c.035-.777.594-2.224 3.388-7.446.314-.635.664-1.905-.35-1.905-2.968 0-4.54 9.385-5.343 9.385h-2.968c-.629 0-1.013.459-1.013.988 0 .918 1.048 1.023 1.048 1.023.628 0 2.689-.105 2.689-.105-.314 1.87-1.223 6.527-1.223 8.573 0 2.364.455 3.529 1.782 5.328"/>
    <path d="M114.473 13.69c0-1.976-.839-2.54-2.515-2.54-3.492 0-7.369 6.35-7.369 10.232 0 3.916 2.096 6.28 5.274 6.28 8.277 0 17.287-9.456 20.884-13.902.838-1.058.524-1.481 0-1.481-.349 0-.803.176-1.117.564-3.982 5.151-11.84 13.02-19.628 13.02-1.746 0-3.143-1.2-3.527-3.352 4.051-2.294 7.998-5.646 7.998-8.821m-2.585-.917c.524 0 .769.493.769.952 0 2.117-3.109 5.151-6.287 7.163.175-4.376 3.632-8.116 5.518-8.116m29.61 12.703c0 .352.279 2.293.943 2.293 4.016 0 9.709-10.762 9.709-14.643 0-1.94-1.432-2.787-3.039-2.752-1.117.035-2.34.53-3.283.988.14-.917.489-2.117.699-2.893.663-2.364 1.886-5.363 2.13-7.656.07-.46-.244-.812-.733-.812-1.432 0-1.397 2.082-1.746 2.964-3.179 11.96-4.68 18.7-4.68 22.51m4.016-12.28c.803-.493 2.48-1.234 3.527-1.234 1.013 0 1.188 1.023 1.188 2.011 0 2.787-5.204 11.326-6.88 11.326 0-3.07 1.117-9.174 2.165-12.102m21.546.495c0-1.976-.838-2.54-2.514-2.54-3.493 0-7.369 6.35-7.369 10.232 0 3.916 2.095 6.28 5.273 6.28 8.277 0 17.288-9.456 20.885-13.902.838-1.058.524-1.481 0-1.481-.349 0-.803.176-1.118.564-3.981 5.151-11.839 13.02-19.627 13.02-1.746 0-3.143-1.2-3.527-3.352 4.051-2.294 7.997-5.646 7.997-8.821m-2.584-.917c.524 0 .768.493.768.952 0 2.117-3.108 5.151-6.286 7.163.175-4.376 3.632-8.116 5.518-8.116"/>
    <path d="M181.17 27.062c.349.318.768.67 1.222.67.908 0 1.711-.776 2.27-1.446 0-.423-.314-.882-.663-.882-.454 0-.908.635-1.467.635-1.257 0-1.362-3.81-1.362-4.446 0-2.223.873-6.457 1.467-8.503l13.48-.247c.559 0 .908-.141.908-.882 0-.459-.349-.6-.663-.6h-6.182c-1.571-.14-2.968-.14-4.33-.14h-2.69c.035-.777.594-2.224 3.388-7.446.314-.635.664-1.905-.349-1.905-2.969 0-4.54 9.385-5.344 9.385h-2.968c-.629 0-1.013.459-1.013.988 0 .918 1.048 1.023 1.048 1.023.628 0 2.689-.105 2.689-.105-.314 1.87-1.222 6.527-1.222 8.573 0 2.364.454 3.529 1.781 5.328"/>
    <path d="M189.197 25.863c0 .67.489 1.905 1.292 1.905 3.143 0 7.893-12.032 9.534-12.49.664 1.587 1.293 10.232 6.461 10.232 4.156 0 10.792-8.962 13.516-12.385v-.105c0-.177-.559-.812-.733-.6-3.388 3.281-9.395 11.255-12.783 11.255-4.784 0-3.946-12.949-6.88-12.949-3.806 0-10.407 11.926-10.407 15.137m9.744-12.42v.247c-.838 1.023-2.864 4.551-3.283 5.292-.14.106-3.493 6.492-4.505 6.492h-.245c0-2.364 5.553-12.031 8.033-12.031"/>
  </g>
</svg>
