<svg width="306" height="92" fill="none" viewBox="0 0 306 92" xmlns="http://www.w3.org/2000/svg">
  <path fill="#000" d="M0 19.506C0 8.733 8.733 0 19.506 0h46.348C76.627 0 85.36 8.733 85.36 19.506v46.348c0 10.773-8.733 19.506-19.506 19.506H19.506C8.733 85.36 0 76.627 0 65.854z"/>
  <path fill="#24CB71" d="M22.674 62.686c0-5.525 4.478-10.003 10.003-10.003H42.68v10.003c0 5.525-4.478 10.003-10.003 10.003s-10.003-4.478-10.003-10.003"/>
  <path fill="#FF7237" d="M42.68 12.67v20.007h10.003c5.525 0 10.003-4.479 10.003-10.003 0-5.525-4.478-10.003-10.003-10.003z"/>
  <path fill="#00B6FF" d="M52.6 52.683c5.524 0 10.003-4.479 10.003-10.003 0-5.525-4.479-10.003-10.003-10.003-5.525 0-10.003 4.478-10.003 10.003 0 5.524 4.478 10.003 10.003 10.003"/>
  <path fill="#FF3737" d="M22.674 22.674c0 5.524 4.478 10.003 10.003 10.003H42.68V12.671H32.677c-5.525 0-10.003 4.478-10.003 10.003"/>
  <path fill="#874FFF" d="M22.674 42.68c0 5.524 4.478 10.003 10.003 10.003H42.68V32.677H32.677c-5.525 0-10.003 4.478-10.003 10.003"/>
  <path fill="#000" d="M286.755 72.113q-3.945 0-7.085-1.526-3.06-1.526-4.911-4.094-1.771-2.65-1.771-6.102 0-4.496 2.898-7.306t8.292-3.854l9.42-1.927q2.818-.562 3.864-1.766 1.047-1.204 1.047-3.533l.966 9.393-13.525 2.891q-2.737.562-4.267 2.007-1.449 1.446-1.449 4.014 0 2.65 2.012 4.256 2.093 1.605 5.636 1.606 2.898 0 5.313-1.285 2.496-1.284 3.865-3.532 1.449-2.329 1.449-5.3v-14.05q0-2.89-2.093-4.496-2.013-1.686-5.555-1.686-4.509 0-6.924 2.248t-2.818 6.343l-7.085-.964q.403-4.255 2.577-7.306 2.173-3.13 5.796-4.817 3.623-1.686 8.615-1.686 7.085 0 10.868 3.613t3.784 9.313v28.341h-7.004V65.69q-1.047 2.649-4.267 4.576-3.14 1.847-7.648 1.847m-70.852-1.205V30.845h7.004v4.497q.805-2.328 3.543-4.015 2.736-1.686 6.36-1.686 3.542 0 6.521 1.525 2.979 1.526 3.864 4.577 1.047-2.81 3.865-4.416 2.898-1.686 6.44-1.686 6.12 0 9.34 3.533t3.22 10.276v27.458h-7.165V44.414q0-4.015-1.771-6.022-1.692-2.087-4.992-2.087-3.623 0-5.636 2.569-1.932 2.49-1.932 7.306v24.728h-7.165V44.414q0-4.015-1.771-6.022-1.692-2.087-4.992-2.087-3.623 0-5.636 2.569-1.932 2.49-1.932 7.306v24.728zM188.505 85.36q-7.488 0-12.157-3.452-4.67-3.453-5.958-9.635l7.005-1.525q.885 3.933 3.783 6.102 2.9 2.248 7.327 2.248 5.313 0 7.97-2.73 2.738-2.65 2.738-7.949v-6.342q-1.209 2.97-4.509 4.817-3.22 1.847-7.246 1.847-5.313 0-9.339-2.409-4.025-2.489-6.279-6.905-2.256-4.416-2.255-10.196 0-5.86 2.255-10.277t6.199-6.824q4.025-2.49 9.419-2.489 4.026 0 7.327 1.847 3.38 1.766 4.589 4.415v-5.058h7.004V68.42q0 5.3-2.094 9.073-2.093 3.854-6.118 5.861-3.946 2.007-9.661 2.007m-.161-22.962q5.152 0 8.212-3.613 3.14-3.613 3.14-9.554 0-6.022-3.14-9.634-3.14-3.614-8.212-3.614-5.152 0-8.293 3.614-3.059 3.612-3.059 9.634 0 5.941 3.14 9.554t8.212 3.613m-33.219 8.463V30.845h7.165v40.063zm-.08-45.155v-11.4h7.326v11.4zm-41.073 45.201V14.307h7.568v56.601zm1.53-23.925v-6.825h30.835v6.825zm0-25.772v-6.904h33.814v6.904z"/>
</svg>
