<svg width="420" height="165" fill="none" viewBox="0 0 420 165" xmlns="http://www.w3.org/2000/svg">
  <path fill="#000" d="M355.712 137.764q-7.985 0-14.411-3.116c-4.155-2.078-7.466-4.869-9.997-8.374-2.402-3.571-3.571-7.725-3.571-12.399s1.948-11.101 5.908-14.866c3.895-3.83 9.542-6.426 16.878-7.854l19.149-3.895c3.83-.78 6.427-1.948 7.855-3.57q2.142-2.435 2.142-7.206l1.948 19.15-27.459 5.907c-3.7.779-6.622 2.142-8.699 4.09q-2.92 2.92-2.921 8.179c0 3.505 1.363 6.491 4.09 8.698 2.856 2.208 6.621 3.246 11.425 3.246 4.803 0 7.53-.844 10.776-2.596 3.375-1.753 5.972-4.155 7.854-7.206 1.948-3.181 2.921-6.751 2.921-10.776V76.549c0-3.895-1.428-7.011-4.284-9.153-2.726-2.272-6.491-3.44-11.295-3.44s-10.776 1.557-14.087 4.608c-3.245 3.051-5.193 7.336-5.712 12.918l-14.411-1.947c.519-5.778 2.272-10.711 5.258-14.866 2.921-4.284 6.881-7.53 11.749-9.802 4.934-2.272 10.711-3.44 17.527-3.44 9.608 0 16.943 2.466 22.072 7.335 5.128 4.934 7.66 11.23 7.66 18.955v57.71H379.86v-10.646c-1.428 3.57-4.284 6.686-8.698 9.347-4.285 2.532-9.413 3.765-15.515 3.765zm-143.982-2.402V53.699h14.217v9.153q1.655-4.772 7.205-8.18c3.7-2.272 7.985-3.44 12.918-3.44 4.934 0 9.218 1.038 13.243 3.116 4.025 2.077 6.621 5.193 7.855 9.348 1.428-3.83 4.024-6.816 7.854-9.024 3.895-2.272 8.309-3.44 13.113-3.44 8.309 0 14.606 2.402 18.955 7.205 4.35 4.804 6.557 11.75 6.557 20.968v55.957h-14.541v-54.01c0-5.453-1.169-9.542-3.571-12.269q-3.408-4.284-10.126-4.284c-4.479 0-8.699 1.753-11.425 5.258-2.597 3.376-3.895 8.374-3.895 14.866v50.374h-14.541v-54.01c0-5.452-1.169-9.542-3.57-12.268q-3.409-4.285-10.127-4.285c-4.479 0-8.699 1.753-11.425 5.258-2.597 3.376-3.895 8.374-3.895 14.866v50.374H211.99zm-55.632 29.406q-15.19 0-24.733-7.011c-6.296-4.674-10.386-11.23-12.074-19.604l14.217-3.116c1.168 5.323 3.765 9.478 7.66 12.399 3.895 3.051 8.893 4.609 14.865 4.609s12.594-1.883 16.164-5.583c3.7-3.57 5.583-9.023 5.583-16.164V117.38c-1.623 4.025-4.674 7.336-9.153 9.802-4.35 2.532-9.283 3.765-14.736 3.765s-13.502-1.622-18.955-4.933c-5.453-3.376-9.737-8.05-12.788-14.087-3.051-5.972-4.609-12.918-4.609-20.773 0-7.854 1.558-14.93 4.609-20.967 3.051-5.972 7.27-10.646 12.593-13.892 5.453-3.375 11.815-5.063 19.15-5.063s10.386 1.233 14.866 3.765c4.608 2.402 7.659 5.388 9.347 9.023V53.7h14.217v76.534q0 10.809-4.285 18.501c-2.856 5.258-7.011 9.218-12.463 11.944-5.323 2.727-11.88 4.09-19.605 4.09zm-.324-46.804c7.01 0 12.528-2.466 16.683-7.335 4.284-4.934 6.361-11.425 6.361-19.475 0-8.049-2.142-14.735-6.361-19.604-4.285-4.933-9.803-7.335-16.683-7.335-6.881 0-12.594 2.467-16.878 7.335-4.155 4.934-6.232 11.425-6.232 19.605s2.142 14.54 6.361 19.474c4.285 4.934 9.803 7.335 16.684 7.335zm-67.512 17.398V53.699h14.541v81.598H88.262zm-.13-92.115v-23.24h14.866v23.24zm-83.48 92.115V20.008h15.385v115.289H4.652zm3.116-48.751V72.719H70.41V86.61zm0-52.517V20.008h68.68v14.086z"/>
</svg>
