<svg width="365" height="100" fill="none" viewBox="0 0 365 100" xmlns="http://www.w3.org/2000/svg">
  <path fill="#888" d="M66.5 94.014c-4.813.846-9.711 1.1-14.778 1.774L36.266 50.521v47.21c-4.814.507-9.205 1.182-13.766 1.858V13.107h12.837l17.567 49.069v-49.07H66.5zm26.604-49.236c5.237 0 13.26-.254 18.074-.254v13.513c-5.997 0-13.006 0-18.074.253v20.1c7.939-.506 15.878-1.182 23.901-1.436V89.96l-37.414 2.956v-79.81h37.414V26.62h-23.9zm74.152-18.158h-14.02v62.159c-4.56 0-9.121 0-13.512.168V26.62h-14.019V13.107h41.551zm21.958 17.229h18.496V57.36h-18.496v30.66h-13.261V13.107h37.753V26.62h-24.492zm46.45 32.346c7.686.168 15.455.76 22.972 1.182V90.72c-12.077-.76-24.154-1.52-36.484-1.774v-75.84h13.512zm34.373 15.455c4.307.254 8.868.507 13.26 1.013V13.107h-13.26zM342.5 13.107l-17.145 41.13L342.5 99.589c-5.068-.676-10.135-1.605-15.203-2.45l-9.711-24.998-9.881 22.972c-4.899-.845-9.628-1.099-14.526-1.774l17.398-39.61-15.71-40.622h14.526l8.868 22.718 9.459-22.718z"/>
</svg>
