<svg width="75" height="24" fill="none" viewBox="0 0 75 24" xmlns="http://www.w3.org/2000/svg">
  <mask id="mask0_4027_72539" width="75" height="21" x="0" y="2" maskUnits="userSpaceOnUse" style="mask-type:luminance">
    <path fill="#fff" d="M.225 2.4h74.4v19.84H.225z"/>
  </mask>
  <g mask="url(#mask0_4027_72539)">
    <path fill="#1313BA" d="M5.373 9.106c-1.776 0-2.646 1.564-2.646 3.652v5.233H.225V6.949h2.458v2.865h.042c.526-1.762 1.573-3.185 3.187-3.185 1.135 0 1.614.396 1.614.396L6.395 9.3c0-.002-.36-.194-1.022-.194m30.252 1.516v7.368h-2.438v-6.471c0-1.857-.582-2.841-2.071-2.841-1.541 0-2.287 1.244-2.287 3.63v5.68h-2.416v-6.47c0-1.785-.575-2.84-2.05-2.84-1.68 0-2.328 1.474-2.328 3.63v5.68h-2.459V6.949h2.459v2.5h.021c.383-1.73 1.429-2.797 3.193-2.797 1.75 0 2.89.94 3.322 2.606.412-1.604 1.508-2.607 3.192-2.607 2.351 0 3.862 1.474 3.862 3.972m-23.18-3.994c-2.263 0-3.744 1.063-4.418 2.981l2.082.757c.379-1.157 1.17-1.815 2.379-1.815 1.359 0 2.157.598 2.157 1.516 0 .939-.635 1.135-2.071 1.367-1.597.258-5.393.342-5.393 3.545 0 1.877 1.569 3.288 3.926 3.288 1.772 0 2.979-.724 3.537-2.072h.022v1.796h2.438v-6.794c0-2.97-1.496-4.569-4.66-4.569m2.264 6.165c0 2.315-1.146 3.802-2.976 3.802-1.296 0-2.071-.726-2.071-1.774 0-.982.797-1.664 2.329-1.945 1.567-.288 2.356-.643 2.718-1.495zM44.296 6.65c-1.865 0-3.096 1.025-3.624 2.564V6.95h-2.589v15.29h2.568v-6.515h.021c.572 1.667 1.761 2.585 3.624 2.585 2.955 0 5.07-2.434 5.07-5.873 0-3.416-2.115-5.787-5.07-5.787m-.637 9.61c-2.046 0-3.181-1.484-3.181-3.79s1.27-3.792 3.181-3.792c1.91 0 3.183 1.557 3.183 3.791s-1.27 3.792-3.183 3.792m31.136 1.68v.07l-10.019.002v-.072c1.445-.816 2.442-1.647 3.34-2.516h4.114zM72.313 4.89l-2.54-2.49H69.7s.043 4.643-4.22 8.865c-4.173 4.133-9.08 4.141-9.08 4.141v.073l2.588 2.535s4.835.047 9.106-4.142c4.256-4.176 4.22-8.982 4.22-8.982"/>
  </g>
</svg>
