<svg width="55" height="20" fill="none" viewBox="0 0 55 20" xmlns="http://www.w3.org/2000/svg">
  <path fill="#EB0A1E" d="M7.884 5.284H0v1.793h2.91v7.641h2.064V7.077h2.91zM13.207 5c-2.686 0-4.862 2.24-4.862 5s2.176 5 4.862 5 4.863-2.24 4.863-5-2.176-5-4.863-5m2.384 6.513a2.54 2.54 0 0 1-2.382 1.648q-.244 0-.478-.045a2.54 2.54 0 0 1-1.904-1.603 4.28 4.28 0 0 1 0-3.028 2.54 2.54 0 0 1 2.86-1.603 2.54 2.54 0 0 1 1.905 1.603c.179.47.277.979.277 1.515s-.098 1.045-.277 1.513m2.512-6.229h2.432l2.27 4.056 2.271-4.056h2.43l-3.67 5.942v3.492h-2.064v-3.492zM27.546 10c0-2.76 2.177-5 4.863-5s4.863 2.24 4.863 5-2.176 5-4.863 5c-2.686 0-4.863-2.24-4.863-5m4.863 3.162q.245 0 .478-.044a2.54 2.54 0 0 0 1.904-1.603c.18-.468.278-.979.278-1.515s-.098-1.045-.278-1.513a2.54 2.54 0 0 0-2.86-1.603c-.87.158-1.59.777-1.904 1.603a4.28 4.28 0 0 0 0 3.028 2.54 2.54 0 0 0 2.382 1.647m19.541-.528h-3.904l-.752 2.077h-2.295l3.716-9.433h2.567L55 14.71h-2.295l-.756-2.075zm-.6-1.651L50 7.257l-1.353 3.726h2.705zm-5.745-5.699h-7.883v1.793h2.909v7.641h2.065l-.002-7.641h2.911z"/>
</svg>
