<svg width="100" height="100" fill="none" viewBox="0 0 100 100" xmlns="http://www.w3.org/2000/svg">
  <path fill="#161614" d="M50 6C25.15 6 5 26.292 5 51.325 5 71.351 17.894 88.34 35.774 94.334c2.249.42 3.075-.984 3.075-2.18 0-1.082-.042-4.652-.061-8.44-12.52 2.742-15.161-5.347-15.161-5.347-2.047-5.239-4.997-6.632-4.997-6.632-4.083-2.813.308-2.755.308-2.755 4.519.32 6.898 4.67 6.898 4.67 4.014 6.93 10.527 4.926 13.095 3.768.404-2.93 1.57-4.929 2.857-6.06-9.995-1.147-20.502-5.033-20.502-22.4 0-4.949 1.758-8.992 4.637-12.166-.468-1.142-2.008-5.752.436-11.995 0 0 3.778-1.218 12.378 4.646 3.59-1.004 7.44-1.508 11.263-1.525 3.825.017 7.677.52 11.274 1.525 8.589-5.864 12.362-4.646 12.362-4.646 2.45 6.243.909 10.853.441 11.995 2.886 3.174 4.632 7.217 4.632 12.166 0 17.408-10.528 21.241-20.548 22.363 1.614 1.407 3.052 4.165 3.052 8.394 0 6.064-.052 10.945-.052 12.438 0 1.206.81 2.62 3.091 2.175C82.122 88.328 95 71.344 95 51.325 95 26.292 74.852 6 50 6M21.854 70.566c-.099.225-.45.293-.771.138-.327-.147-.51-.454-.404-.68.097-.232.45-.297.775-.141.327.148.513.457.4.683m2.214 1.99c-.215.2-.635.107-.92-.21-.294-.316-.349-.738-.131-.942.221-.2.628-.106.923.21.294.32.352.74.128.942m1.518 2.545c-.276.193-.726.012-1.005-.391-.276-.403-.276-.886.006-1.08.28-.194.724-.02 1.006.38.275.41.275.894-.007 1.091m2.568 2.948c-.246.274-.772.2-1.156-.174-.394-.365-.503-.884-.256-1.158.25-.274.778-.197 1.166.174.39.364.51.887.246 1.158m3.32.995c-.11.355-.615.516-1.125.366-.509-.156-.842-.572-.74-.93.107-.358.615-.526 1.128-.365.508.155.842.568.736.929m3.777.422c.013.374-.42.684-.955.69-.538.013-.973-.29-.979-.658 0-.377.423-.684.96-.693.536-.01.974.29.974.661m3.71-.143c.065.365-.307.74-.838.839-.523.096-1.006-.13-1.073-.49-.064-.375.314-.75.836-.846.532-.093 1.008.126 1.076.497"/>
</svg>
