<svg width="25" height="25" fill="none" viewBox="0 0 25 25" xmlns="http://www.w3.org/2000/svg">
  <path fill="#888" fill-rule="evenodd" d="M17.496 6.81c0 2.548-2.147 4.614-4.796 4.614S7.903 9.358 7.903 6.81s2.148-4.613 4.797-4.613 4.796 2.066 4.796 4.613M6.469 12.578c-2.649 0-4.796 2.065-4.796 4.612s2.147 4.613 4.796 4.613 4.796-2.065 4.796-4.613c0-2.547-2.147-4.612-4.796-4.612m12.461 0c-2.649 0-4.796 2.065-4.796 4.612s2.147 4.613 4.796 4.613 4.796-2.065 4.796-4.613c0-2.547-2.147-4.613-4.796-4.613" clip-rule="evenodd"/>
</svg>
