<svg width="25" height="25" fill="none" viewBox="0 0 25 25" xmlns="http://www.w3.org/2000/svg">
  <path fill="#888" d="M20.928 2H4.072c-.486 0-.953.185-1.297.513-.345.328-.54.773-.542 1.237v17.5c.003.465.197.91.542 1.237.344.328.81.512 1.297.513h16.856c.486 0 .953-.185 1.297-.513.345-.328.54-.772.542-1.237v-.817c-.031-1.05-.062-3.237-.062-4.229 0-.554-.429-1.02-.98-1.02-.613 0-1.012.35-1.319.64-.919.789-2.297.935-3.492.73-.552-.116-1.073-.262-1.503-.525-1.317-.729-2.175-2.1-2.175-3.558s.858-2.8 2.175-3.559c.46-.262.98-.408 1.502-.524 1.164-.205 2.575-.059 3.494.729.337.292.735.64 1.318.64.551 0 .98-.465.98-1.02 0-.962.03-3.178.062-4.229V3.75a1.72 1.72 0 0 0-.542-1.237 1.9 1.9 0 0 0-1.297-.512z"/>
</svg>
