<svg width="25" height="25" fill="none" viewBox="0 0 25 25" xmlns="http://www.w3.org/2000/svg">
  <path fill="#888" d="M8.58 5.893c0 .238-.02.636-.265.895-.265.239-.672.259-.917.259H4.791c-.754 0-1.202 0-1.508.04-.163.02-.366.099-.468.139-.04.02-.04 0-.02-.02l5.948-5.91c.02-.02.04-.02.02.02-.04.1-.122.298-.142.458-.041.298-.041.736-.041 1.472zm5.541 17.868c-.693-.437-1.06-1.014-1.202-1.373a2.8 2.8 0 0 1-.224-1.094c0-1.652 1.385-3.005 3.097-3.005.509 0 .916.398.916.896a.88.88 0 0 1-.468.776c-.102.06-.245.1-.347.12s-.489.059-.672.218c-.204.16-.367.418-.367.697 0 .298.123.577.326.776.367.358.856.557 1.386.557 1.385 0 2.505-1.095 2.505-2.448 0-1.214-.835-2.288-1.935-2.766-.163-.08-.428-.139-.672-.199a9 9 0 0 0-.611-.1c-.856-.099-2.995-.755-3.137-2.606 0 0-.632 2.786-1.895 3.542-.122.06-.285.12-.469.16a3 3 0 0 1-.448.059c-2.057.12-4.237-.517-5.745-2.03 0 0-1.018-.816-1.548-3.104-.122-.557-.367-1.552-.51-2.487-.06-.338-.08-.597-.101-.836 0-.975.611-1.632 1.385-1.731h4.156c.713 0 1.12-.18 1.385-.418.347-.318.428-.776.428-1.313V1.853C9.456 1.117 10.128.5 11.127.5h.488c.204 0 .449.02.673.04.163.02.305.06.55.12 1.242.298 1.507 1.531 1.507 1.531s2.343.398 3.524.597c1.12.2 3.891.378 4.421 3.105 1.243 6.486.489 12.774.428 12.774-.876 6.13-6.091 5.83-6.091 5.83-1.12 0-1.956-.357-2.506-.736m4.686-13.033c-.673-.06-1.243.199-1.447.696-.04.1-.081.22-.06.279.02.06.06.08.1.1.245.119.653.178 1.244.238.59.06.998.1 1.263.06.04 0 .081-.02.122-.08s.02-.179.02-.278c-.081-.558-.57-.936-1.242-1.015"/>
</svg>
