<svg width="210" height="210" fill="none" viewBox="0 0 210 210" xmlns="http://www.w3.org/2000/svg">
  <path fill="#E24329" d="m197.83 85.73-.27-.69-26.14-68.22a6.8 6.8 0 0 0-2.69-3.24 7 7 0 0 0-8 .43 7 7 0 0 0-2.32 3.52l-17.65 54H69.29l-17.65-54A6.86 6.86 0 0 0 49.32 14a7 7 0 0 0-8-.43 6.87 6.87 0 0 0-2.69 3.24L12.44 85l-.26.69a48.54 48.54 0 0 0 16.1 56.1l.09.07.24.17 39.82 29.82 19.7 14.91 12 9.06a8.07 8.07 0 0 0 9.76 0l12-9.06 19.7-14.91 40.06-30 .1-.08a48.564 48.564 0 0 0 16.08-56.04"/>
  <path fill="#FC6D26" d="m197.83 85.73-.27-.69a88.3 88.3 0 0 0-35.15 15.8L105 144.25c19.55 14.79 36.57 27.64 36.57 27.64l40.06-30 .1-.08a48.556 48.556 0 0 0 16.1-56.08"/>
  <path fill="#FCA326" d="m68.43 171.89 19.7 14.91 12 9.06a8.07 8.07 0 0 0 9.76 0l12-9.06 19.7-14.91S124.55 159 105 144.25C85.45 159 68.43 171.89 68.43 171.89"/>
  <path fill="#FC6D26" d="M47.58 100.84A88.2 88.2 0 0 0 12.44 85l-.26.69a48.54 48.54 0 0 0 16.1 56.1l.09.07.24.17 39.82 29.82L105 144.21z"/>
</svg>
