<svg width="100" height="100" fill="none" viewBox="0 0 100 100" xmlns="http://www.w3.org/2000/svg">
  <path fill="#34a853" d="M50.008 35.39 35.85 10.404A4.4 4.4 0 0 1 37.402 9.4c-4.175 1.375-6.09 6.063-6.09 6.063L5.445 61.097a13.4 13.4 0 0 0-.42 3.86h28.231z"/>
  <path fill="#fbbc05" d="m50.008 35.39 16.751 29.567h28.23a13.4 13.4 0 0 0-.42-3.86L68.706 15.463s-1.92-4.688-6.09-6.063a4.4 4.4 0 0 1 1.551 1.004z"/>
  <path fill="#188038" d="m50.008 35.391 14.158-24.986a4.4 4.4 0 0 0-1.552-1.003 7.7 7.7 0 0 0-1.996-.371h-21.22a7.3 7.3 0 0 0-1.996.37 4.4 4.4 0 0 0-1.552 1.004z"/>
  <path fill="#4285f4" d="M33.262 64.957 19.265 89.66s-.465-.227-1.097-.695c1.987 1.529 3.918 1.853 3.918 1.853h54.97c3.032 0 3.664-1.158 3.664-1.158l.026-.016-13.987-24.687z"/>
  <path fill="#1967d2" d="M33.263 64.957H5.033c.141 3.355 1.597 5.316 1.597 5.316l1.061 1.843c.076.108.122.17.122.17l2.31 4.055 5.186 9.027c.151.365.328.7.515 1.019.071.108.137.226.213.33l.06.092a10 10 0 0 0 2.078 2.156 7 7 0 0 0 1.097.695z"/>
  <path fill="#ea4335" d="M66.76 64.957h28.23c-.142 3.355-1.598 5.316-1.598 5.316l-1.061 1.843-.121.17-2.31 4.055-5.187 9.027c-.151.365-.328.7-.515 1.019-.071.108-.137.226-.212.33l-.061.092a10 10 0 0 1-2.078 2.156 7 7 0 0 1-1.096.695z"/>
</svg>
