<svg width="100" height="100" fill="none" viewBox="0 0 100 100" xmlns="http://www.w3.org/2000/svg">
  <path fill="#1967D2" d="M88.217 5H73.586v21.2h21.408V10.979c.006 0-1.058-5.4-6.777-5.978M73.592 94.902V95L95 73.8h-.191z"/>
  <path fill="#FBBC05" d="M94.999 73.799v-.19l-.19.19z"/>
  <path fill="#FBBC05" d="M95 26.201H73.592V73.61H95z"/>
  <path fill="#EA4335" d="M94.809 73.8H73.592v21.102zm-21.217-.001h21.217l.191-.19H73.592z"/>
  <path fill="#34A853" d="M73.54 94.954h.051v-.052zM25.926 73.609v21.345H73.54l.053-21.345z"/>
  <path fill="#34A853" d="M73.591 73.8v-.191l-.051 21.345.051-.052z"/>
  <path fill="#188038" d="M5 73.609v14.84c.192 4.817 5.4 6.505 5.4 6.505h15.526V73.609z"/>
  <path fill="#4285F4" d="M25.926 26.201h47.666v-21.2H11.005S5.384 5.577 5 11.55v62.058h20.926z"/>
  <path fill="#4285F4" d="M41.52 64.013q-1.636 0-3.154-.426a9.4 9.4 0 0 1-2.726-1.279 10 10 0 0 1-2.22-2.208q-.935-1.317-1.441-3.06l4.79-1.898q.506 1.937 1.714 2.944 1.207.969 3.037.969.819 0 1.558-.233.74-.27 1.285-.736.546-.465.857-1.084.35-.66.35-1.472 0-1.706-1.284-2.673-1.247-.969-3.467-.969h-2.297v-4.61h2.103q.778 0 1.519-.193.74-.194 1.285-.58.585-.427.895-1.047.351-.658.351-1.51 0-1.318-.935-2.13-.935-.854-2.531-.853-1.714 0-2.649.93a4.86 4.86 0 0 0-1.246 2.014l-4.673-1.898q.35-.969 1.051-1.976a8 8 0 0 1 1.753-1.86 8.8 8.8 0 0 1 2.531-1.355q1.442-.542 3.31-.542 1.909 0 3.467.542 1.597.543 2.726 1.51a6.45 6.45 0 0 1 1.753 2.248q.623 1.278.623 2.788 0 1.163-.312 2.092a6.5 6.5 0 0 1-.74 1.666 5.8 5.8 0 0 1-2.297 2.092v.31a6.9 6.9 0 0 1 3.076 2.362q1.246 1.628 1.246 4.106 0 1.744-.662 3.215a7.5 7.5 0 0 1-1.908 2.518q-1.207 1.085-2.92 1.666-1.715.62-3.818.62m18.609-.62v-20.53l-4.712 1.976-1.87-4.3 7.828-3.641h3.856v26.495z"/>
</svg>
