<svg width="100" height="100" fill="none" viewBox="0 0 100 100" xmlns="http://www.w3.org/2000/svg">
  <path fill="#006792" fill-rule="evenodd" d="M42.478 5.623C44.916 5.213 47.42 5 49.975 5s5.058.214 7.497.623V20.96c-2.397-.618-4.91-.946-7.497-.946s-5.101.328-7.498.946zm-7.472 1.938v16.467c-8.96 5.187-14.994 14.88-14.994 25.97C20.012 66.55 33.45 79.987 50 79.987S79.988 66.55 79.988 50c0-11.091-6.033-20.784-14.994-25.971V7.56C82.468 13.74 95 30.418 95 49.999c0 24.835-20.164 45-45 45s-45-20.165-45-45C5 30.419 17.533 13.742 35.006 7.56m7.472 21.234V63.75c2.345.83 4.869 1.282 7.497 1.282s5.151-.452 7.497-1.282V28.795c-2.346-.83-4.87-1.282-7.497-1.282s-5.152.451-7.498 1.282" clip-rule="evenodd"/>
</svg>
