<svg width="164" height="164" fill="none" viewBox="0 0 164 164" xmlns="http://www.w3.org/2000/svg">
  <path fill="#FFD02F" d="M151.7 0H12.3C5.507 0 0 5.507 0 12.3v139.4c0 6.793 5.507 12.3 12.3 12.3h139.4c6.793 0 12.3-5.507 12.3-12.3V12.3C164 5.507 158.493 0 151.7 0"/>
  <path fill="#050038" fill-rule="evenodd" d="M112.23 20H94.08l15.13 26.57L75.94 20H57.79l16.64 32.48L39.65 20H21.5l18.15 41.33L21.5 144h18.15l34.78-88.57L57.79 144h18.15l33.27-94.48L94.08 144h18.15L145.5 40.67z" clip-rule="evenodd"/>
</svg>
