<svg width="100" height="100" fill="none" viewBox="0 0 100 100" xmlns="http://www.w3.org/2000/svg">
  <g fill-rule="evenodd" clip-rule="evenodd">
    <path fill="#73a8ff" d="M5 54.918c25.215 1.526 46.826-17.484 48.337-42.515.043-.741.086-1.482.086-2.224C25.05 7.818 5.59 29.154 5.023 52.69l-.02.998z"/>
    <g fill="#415aff">
      <path d="M5 89.412h28.199V60.668H5zM59.805 10.84c0 .66-.043 1.321-.086 1.937a51.9 51.9 0 0 1-7.86 24.518v.22c8.249 0 14.942 6.823 14.942 15.23v36.623H95V54.02c0-21.128-14.812-39.263-35.195-43.18"/>
      <path d="M66.799 89.412h28.199V60.668h-28.2z"/>
    </g>
    <path fill="#73a8ff" d="M6.124 43.963c2.692-.481 11.946-3.532 11.946-3.532s8.194-4.531 11.84-12.898c2.665-6.114.54-11.128-.559-13.086C17.305 20.313 8.99 31.379 6.125 43.963"/>
    <path fill="#73a8ff" d="M25.993 34.658c-8.739.296-17.338 4.005-18.502 4.524A44.2 44.2 0 0 0 5.023 52.69l-.02.997L5 54.917a45.69 45.69 0 0 0 40.436-19.59c-4.004.603-10.201-.981-19.443-.669"/>
  </g>
</svg>
