<svg width="100" height="100" fill="none" viewBox="0 0 100 100" xmlns="http://www.w3.org/2000/svg">
  <g fill-rule="evenodd" clip-rule="evenodd">
    <path fill="#36c5f0" d="M37.998 5c-4.975.004-9.001 4.033-8.998 8.998-.003 4.965 4.027 8.995 9.002 8.998h9.001v-8.994c.004-4.965-4.026-8.995-9.005-9.002q.006 0 0 0m0 24H14.002c-4.976.004-9.006 4.033-9.002 8.998-.007 4.965 4.023 8.995 8.998 9.002h24c4.975-.004 9.005-4.033 9.002-8.998.003-4.969-4.027-8.998-9.002-9.002"/>
    <path fill="#2eb67d" d="M95 37.998c.004-4.965-4.026-8.994-9-8.998-4.975.004-9.006 4.033-9.002 8.998V47H86c4.975-.004 9.005-4.033 9.001-9.002m-24 0v-24c.004-4.961-4.023-8.99-8.998-8.998-4.975.004-9.005 4.033-9.001 8.998v24c-.008 4.965 4.022 8.995 8.997 9.002 4.975-.004 9.006-4.033 9.002-9.002"/>
    <path fill="#ecb22e" d="M61.998 95c4.975-.004 9.005-4.033 9.002-8.998.003-4.965-4.027-8.995-9.002-8.998h-9.001v8.998c-.004 4.961 4.026 8.99 9.001 8.998m0-24.004h24c4.976-.003 9.006-4.033 9.002-8.998.007-4.965-4.023-8.994-8.998-9.002h-24c-4.975.004-9.005 4.033-9.001 8.999-.004 4.968 4.022 8.998 8.997 9.001"/>
    <path fill="#e01e5a" d="M5 61.998c-.004 4.965 4.026 8.995 9.002 8.998 4.975-.003 9.005-4.033 9.001-8.998V53h-9.001c-4.976.004-9.006 4.033-9.002 8.998m24 0v24c-.007 4.965 4.023 8.995 8.998 9.002 4.975-.004 9.005-4.033 9.002-8.998V62.006c.007-4.966-4.023-8.995-8.998-9.002-4.979 0-9.005 4.029-9.002 8.994"/>
  </g>
</svg>
