<svg xmlns:xlink="http://www.w3.org/1999/xlink" width="100" height="100" fill="none" viewBox="0 0 100 100" xmlns="http://www.w3.org/2000/svg">
  <linearGradient id="a" x1="9.05" x2="79.093" y1="61.569" y2="33.256" gradientUnits="userSpaceOnUse">
    <stop offset=".13" stop-color="#1cbbf3"/>
    <stop offset=".34" stop-color="#1f99a5"/>
    <stop offset=".45" stop-color="#209ca6"/>
    <stop offset=".51" stop-color="#24a4aa"/>
    <stop offset=".57" stop-color="#2bb3b0"/>
    <stop offset=".6" stop-color="#30bdb4"/>
    <stop offset=".79" stop-color="#38ba90"/>
    <stop offset="1" stop-color="#60f05a"/>
  </linearGradient>
  <radialGradient id="b" cx="0" cy="0" r="1" gradientTransform="matrix(9.04748 32.23082 -24.49541 6.87608 55.729 44.902)" gradientUnits="userSpaceOnUse">
    <stop offset="0" stop-color="#227b60"/>
    <stop offset=".14" stop-color="#227b60" stop-opacity=".81"/>
    <stop offset=".58" stop-color="#227b60" stop-opacity=".23"/>
    <stop offset=".78" stop-color="#227b60" stop-opacity="0"/>
  </radialGradient>
  <radialGradient id="c" cx="0" cy="0" r="1" gradientTransform="matrix(-.45267 22.63277 -17.19856 -.34398 60.725 42.495)" gradientUnits="userSpaceOnUse">
    <stop offset="0" stop-color="#227b60"/>
    <stop offset=".25" stop-color="#227b60" stop-opacity=".7"/>
    <stop offset=".71" stop-color="#227b60" stop-opacity=".2"/>
    <stop offset=".92" stop-color="#227b60" stop-opacity="0"/>
  </radialGradient>
  <radialGradient id="d" cx="0" cy="0" r="1" gradientTransform="matrix(.51557 21.0956 -14.97773 .36605 59.652 43.435)" gradientUnits="userSpaceOnUse">
    <stop offset="0" stop-color="#227b60"/>
    <stop offset=".07" stop-color="#227b60" stop-opacity=".9"/>
    <stop offset=".34" stop-color="#227b60" stop-opacity=".51"/>
    <stop offset=".59" stop-color="#227b60" stop-opacity=".23"/>
    <stop offset=".79" stop-color="#227b60" stop-opacity=".06"/>
    <stop offset=".92" stop-color="#227b60" stop-opacity="0"/>
  </radialGradient>
  <radialGradient id="e" cx="0" cy="0" r="1" gradientTransform="matrix(.41628 17.03321 -12.09359 .29556 60.016 42.49)" gradientUnits="userSpaceOnUse">
    <stop offset="0" stop-color="#227b60"/>
    <stop offset=".36" stop-color="#227b60" stop-opacity=".63"/>
    <stop offset=".92" stop-color="#227b60" stop-opacity="0"/>
  </radialGradient>
  <radialGradient id="f" cx="0" cy="0" r="1" gradientTransform="matrix(.33208 13.58494 -8.69444 .21253 60.752 43.434)" gradientUnits="userSpaceOnUse">
    <stop offset="0" stop-color="#20735a"/>
    <stop offset=".15" stop-color="#20745a" stop-opacity=".93"/>
    <stop offset=".38" stop-color="#21755c" stop-opacity=".74"/>
    <stop offset=".67" stop-color="#21785d" stop-opacity=".43"/>
    <stop offset="1" stop-color="#227b60" stop-opacity="0"/>
  </radialGradient>
  <radialGradient id="g" cx="0" cy="0" r="1" gradientTransform="matrix(20.00762 8.82437 -6.61828 15.00572 62.567 45.633)" gradientUnits="userSpaceOnUse">
    <stop offset="0" stop-color="#227a61"/>
    <stop offset=".36" stop-color="#227a61" stop-opacity=".56"/>
    <stop offset=".72" stop-color="#227a61" stop-opacity=".16"/>
    <stop offset=".9" stop-color="#227a61" stop-opacity="0"/>
  </radialGradient>
  <linearGradient id="h">
    <stop offset="0" stop-color="#3cd9c3"/>
    <stop offset=".07" stop-color="#3bd7c1" stop-opacity=".9"/>
    <stop offset=".41" stop-color="#38ceb9" stop-opacity=".42"/>
    <stop offset=".65" stop-color="#36c8b4" stop-opacity=".12"/>
    <stop offset=".76" stop-color="#35c6b2" stop-opacity="0"/>
  </linearGradient>
  <radialGradient xlink:href="#h" id="i" cx="0" cy="0" r="1" gradientTransform="matrix(23.8088 16.84036 -15.39809 21.76973 55.037 10.099)" gradientUnits="userSpaceOnUse"/>
  <radialGradient xlink:href="#h" id="j" cx="0" cy="0" r="1" gradientTransform="matrix(4229.86688 2991.85468 -2099.53357 2968.30844 -47818 -64966.5)" gradientUnits="userSpaceOnUse"/>
  <radialGradient id="k" cx="0" cy="0" r="1" gradientTransform="matrix(-4.8953 25.25004 -31.20211 -6.04925 66.73 51.201)" gradientUnits="userSpaceOnUse">
    <stop offset="0" stop-color="#237f66" stop-opacity=".8"/>
    <stop offset=".06" stop-color="#2c8c70" stop-opacity=".65"/>
    <stop offset=".21" stop-color="#3da785" stop-opacity=".37"/>
    <stop offset=".35" stop-color="#4aba93" stop-opacity=".17"/>
    <stop offset=".47" stop-color="#51c59c" stop-opacity=".04"/>
    <stop offset=".56" stop-color="#54c99f" stop-opacity="0"/>
  </radialGradient>
  <radialGradient id="l" cx="0" cy="0" r="1" gradientTransform="matrix(21.23272 -26.05245 28.13655 22.93126 52.464 52.475)" gradientUnits="userSpaceOnUse">
    <stop offset="0" stop-color="#167c8a"/>
    <stop offset=".04" stop-color="#167c8a" stop-opacity=".93"/>
    <stop offset=".33" stop-color="#177f8d" stop-opacity=".43"/>
    <stop offset=".54" stop-color="#17818f" stop-opacity=".12"/>
    <stop offset=".65" stop-color="#178290" stop-opacity="0"/>
  </radialGradient>
  <radialGradient id="m" cx="0" cy="0" r="1" gradientTransform="matrix(27.90742 -17.209 13.59513 22.04689 50.424 55.82)" gradientUnits="userSpaceOnUse">
    <stop offset=".05" stop-color="#177d87"/>
    <stop offset=".11" stop-color="#177e89" stop-opacity=".8"/>
    <stop offset=".21" stop-color="#177f8b" stop-opacity=".52"/>
    <stop offset=".32" stop-color="#17818d" stop-opacity=".29"/>
    <stop offset=".42" stop-color="#17818f" stop-opacity=".13"/>
    <stop offset=".51" stop-color="#178290" stop-opacity=".03"/>
    <stop offset=".6" stop-color="#178290" stop-opacity="0"/>
  </radialGradient>
  <radialGradient id="n" cx="0" cy="0" r="1" gradientTransform="matrix(-12.69656 -14.84528 11.68938 -9.99744 43.616 55.407)" gradientUnits="userSpaceOnUse">
    <stop offset=".26" stop-color="#177f8a"/>
    <stop offset=".27" stop-color="#177f8a" stop-opacity=".98"/>
    <stop offset=".38" stop-color="#17808c" stop-opacity=".68"/>
    <stop offset=".5" stop-color="#17818d" stop-opacity=".43"/>
    <stop offset=".62" stop-color="#17818f" stop-opacity=".24"/>
    <stop offset=".74" stop-color="#17828f" stop-opacity=".11"/>
    <stop offset=".86" stop-color="#178290" stop-opacity=".03"/>
    <stop offset="1" stop-color="#178290" stop-opacity="0"/>
  </radialGradient>
  <radialGradient id="o" cx="0" cy="0" r="1" gradientTransform="rotate(-173.11 21.255 29.42)scale(18.3235)" gradientUnits="userSpaceOnUse">
    <stop offset="0" stop-color="#13656e"/>
    <stop offset=".11" stop-color="#13646e" stop-opacity=".73"/>
    <stop offset=".27" stop-color="#12646e" stop-opacity=".41"/>
    <stop offset=".42" stop-color="#12636e" stop-opacity=".18"/>
    <stop offset=".55" stop-color="#12636e" stop-opacity=".05"/>
    <stop offset=".66" stop-color="#12636e" stop-opacity="0"/>
  </radialGradient>
  <radialGradient id="p" cx="0" cy="0" r="1" gradientTransform="matrix(-6.27494 -11.17268 9.38503 -5.27094 38.354 63.96)" gradientUnits="userSpaceOnUse">
    <stop offset=".13" stop-color="#146a73"/>
    <stop offset=".24" stop-color="#156f79" stop-opacity=".79"/>
    <stop offset=".45" stop-color="#167783" stop-opacity=".45"/>
    <stop offset=".65" stop-color="#167d8a" stop-opacity=".2"/>
    <stop offset=".82" stop-color="#17818e" stop-opacity=".05"/>
    <stop offset=".95" stop-color="#178290" stop-opacity="0"/>
  </radialGradient>
  <radialGradient id="q" cx="0" cy="0" r="1" gradientTransform="matrix(6.742 -9.99257 7.91633 5.34116 35.497 58.128)" gradientUnits="userSpaceOnUse">
    <stop offset="0" stop-color="#198e9c"/>
    <stop offset=".1" stop-color="#198e9c" stop-opacity=".87"/>
    <stop offset=".41" stop-color="#198e9c" stop-opacity=".5"/>
    <stop offset=".67" stop-color="#198e9c" stop-opacity=".23"/>
    <stop offset=".88" stop-color="#198e9c" stop-opacity=".06"/>
    <stop offset="1" stop-color="#198e9c" stop-opacity="0"/>
  </radialGradient>
  <linearGradient id="r" x1="13.555" x2="44.461" y1="16.572" y2="45.172" gradientUnits="userSpaceOnUse">
    <stop offset=".13" stop-color="#2bf9ff"/>
    <stop offset=".27" stop-color="#29f9ff" stop-opacity=".64"/>
    <stop offset=".4" stop-color="#27faff" stop-opacity=".3"/>
    <stop offset=".49" stop-color="#26faff" stop-opacity=".08"/>
    <stop offset=".54" stop-color="#26faff" stop-opacity="0"/>
  </linearGradient>
  <linearGradient id="s" x1="-3.941" x2="32.158" y1="63.24" y2="53.006" gradientUnits="userSpaceOnUse">
    <stop offset="0" stop-color="#26faff"/>
    <stop offset=".06" stop-color="#26faff" stop-opacity=".88"/>
    <stop offset=".24" stop-color="#26faff" stop-opacity=".51"/>
    <stop offset=".39" stop-color="#26faff" stop-opacity=".23"/>
    <stop offset=".5" stop-color="#26faff" stop-opacity=".06"/>
    <stop offset=".55" stop-color="#26faff" stop-opacity="0"/>
  </linearGradient>
  <linearGradient id="t" x1="5.623" x2="46.305" y1="61.986" y2="47.485" gradientUnits="userSpaceOnUse">
    <stop offset="0" stop-color="#21deff"/>
    <stop offset=".04" stop-color="#21deff" stop-opacity=".88"/>
    <stop offset=".17" stop-color="#21deff" stop-opacity=".51"/>
    <stop offset=".27" stop-color="#21deff" stop-opacity=".23"/>
    <stop offset=".34" stop-color="#21deff" stop-opacity=".06"/>
    <stop offset=".38" stop-color="#21deff" stop-opacity="0"/>
  </linearGradient>
  <linearGradient id="u" x1="44.281" x2="67.036" y1="41" y2="78.115" gradientUnits="userSpaceOnUse">
    <stop offset=".62" stop-color="#21deff" stop-opacity="0"/>
    <stop offset=".66" stop-color="#21deff" stop-opacity=".06"/>
    <stop offset=".73" stop-color="#21deff" stop-opacity=".23"/>
    <stop offset=".83" stop-color="#21deff" stop-opacity=".51"/>
    <stop offset=".96" stop-color="#21deff" stop-opacity=".88"/>
    <stop offset="1" stop-color="#21deff"/>
  </linearGradient>
  <linearGradient id="v" x1="69.605" x2="66.028" y1="54.866" y2="37.408" gradientUnits="userSpaceOnUse">
    <stop offset="0" stop-color="#44b044"/>
    <stop offset=".11" stop-color="#44b044" stop-opacity=".8"/>
    <stop offset=".27" stop-color="#44b044" stop-opacity=".52"/>
    <stop offset=".43" stop-color="#44b044" stop-opacity=".29"/>
    <stop offset=".58" stop-color="#44b044" stop-opacity=".13"/>
    <stop offset=".7" stop-color="#44b044" stop-opacity=".03"/>
    <stop offset=".8" stop-color="#44b044" stop-opacity="0"/>
  </linearGradient>
  <linearGradient id="w" x1="19.678" x2="95.008" y1="36.749" y2="61.687" gradientUnits="userSpaceOnUse">
    <stop offset="0" stop-color="#3066fb"/>
    <stop offset=".38" stop-color="#2f64f7"/>
    <stop offset=".74" stop-color="#2857d9"/>
    <stop offset="1" stop-color="#3c7eff"/>
  </linearGradient>
  <linearGradient id="x">
    <stop offset="0" stop-color="#1a3d9c"/>
    <stop offset=".4" stop-color="#1a3d9c" stop-opacity=".42"/>
    <stop offset=".7" stop-color="#1a3d9c" stop-opacity="0"/>
  </linearGradient>
  <radialGradient xlink:href="#x" id="y" cx="0" cy="0" r="1" gradientTransform="matrix(-6.0867 39.82273 -26.28307 -4.01723 72.88 48.166)" gradientUnits="userSpaceOnUse"/>
  <radialGradient xlink:href="#x" id="z" cx="0" cy="0" r="1" gradientTransform="matrix(-748.77847 4899.00761 -2641.5041 -403.73512 24520.9 -63245)" gradientUnits="userSpaceOnUse"/>
  <radialGradient xlink:href="#x" id="A" cx="0" cy="0" r="1" gradientTransform="matrix(-884.1779 5835.60728 -2410.82487 -365.27442 21530.9 -64227)" gradientUnits="userSpaceOnUse"/>
  <radialGradient id="B" cx="0" cy="0" r="1" gradientTransform="matrix(4.23721 34.95663 -24.39067 2.95648 67.848 46.653)" gradientUnits="userSpaceOnUse">
    <stop offset="0" stop-color="#1a3d9c"/>
    <stop offset=".16" stop-color="#1a3d9c" stop-opacity=".69"/>
    <stop offset=".33" stop-color="#1a3d9c" stop-opacity=".4"/>
    <stop offset=".49" stop-color="#1a3d9c" stop-opacity=".18"/>
    <stop offset=".61" stop-color="#1a3d9c" stop-opacity=".05"/>
    <stop offset=".7" stop-color="#1a3d9c" stop-opacity="0"/>
  </radialGradient>
  <radialGradient id="C" cx="0" cy="0" r="1" gradientTransform="matrix(8.9638 32.63162 -22.18953 6.0954 74.2 52.02)" gradientUnits="userSpaceOnUse">
    <stop offset="0" stop-color="#18388f"/>
    <stop offset=".37" stop-color="#193b96" stop-opacity=".45"/>
    <stop offset=".7" stop-color="#1a3d9c" stop-opacity="0"/>
  </radialGradient>
  <radialGradient id="D" cx="0" cy="0" r="1" gradientTransform="matrix(4.1677 15.17219 -14.4135 3.95929 70.82 61.063)" gradientUnits="userSpaceOnUse">
    <stop offset="0" stop-color="#18388f"/>
    <stop offset=".09" stop-color="#183992" stop-opacity=".78"/>
    <stop offset=".22" stop-color="#193b96" stop-opacity=".5"/>
    <stop offset=".35" stop-color="#193c98" stop-opacity=".28"/>
    <stop offset=".47" stop-color="#1a3c9a" stop-opacity=".13"/>
    <stop offset=".59" stop-color="#1a3d9c" stop-opacity=".03"/>
    <stop offset=".7" stop-color="#1a3d9c" stop-opacity="0"/>
  </radialGradient>
  <radialGradient id="E" cx="0" cy="0" r="1" gradientTransform="matrix(4.1677 15.17219 -14.4135 3.95929 71.197 63.747)" gradientUnits="userSpaceOnUse">
    <stop offset="0" stop-color="#1a3d9c" stop-opacity=".8"/>
    <stop offset=".01" stop-color="#1a3d9c" stop-opacity=".78"/>
    <stop offset=".24" stop-color="#1a3d9c" stop-opacity=".45"/>
    <stop offset=".44" stop-color="#1a3d9c" stop-opacity=".2"/>
    <stop offset=".6" stop-color="#1a3d9c" stop-opacity=".05"/>
    <stop offset=".7" stop-color="#1a3d9c" stop-opacity="0"/>
  </radialGradient>
  <radialGradient id="F" cx="0" cy="0" r="1" gradientTransform="matrix(14.65539 34.57155 -22.94167 9.7253 32.238 54.115)" gradientUnits="userSpaceOnUse">
    <stop offset="0" stop-color="#1a3d9c"/>
    <stop offset=".4" stop-color="#1a3d9c" stop-opacity=".56"/>
    <stop offset=".48" stop-color="#1a3d9c" stop-opacity=".43"/>
    <stop offset=".69" stop-color="#1a3d9c" stop-opacity=".12"/>
    <stop offset=".79" stop-color="#1a3d9c" stop-opacity="0"/>
  </radialGradient>
  <radialGradient id="G" cx="0" cy="0" r="1" gradientTransform="matrix(6.6895 27.03652 -17.84926 4.41635 29.848 45.612)" gradientUnits="userSpaceOnUse">
    <stop offset="0" stop-color="#1a3d9c"/>
    <stop offset=".06" stop-color="#1a3d9c" stop-opacity=".88"/>
    <stop offset=".21" stop-color="#1a3d9c" stop-opacity=".61"/>
    <stop offset=".36" stop-color="#1a3d9c" stop-opacity=".39"/>
    <stop offset=".51" stop-color="#1a3d9c" stop-opacity=".22"/>
    <stop offset=".67" stop-color="#1a3d9c" stop-opacity=".1"/>
    <stop offset=".83" stop-color="#1a3d9c" stop-opacity=".02"/>
    <stop offset="1" stop-color="#1a3d9c" stop-opacity="0"/>
  </radialGradient>
  <radialGradient id="H" cx="0" cy="0" r="1" gradientTransform="matrix(6.6895 27.03652 -17.84926 4.41635 29.848 45.612)" gradientUnits="userSpaceOnUse">
    <stop offset="0" stop-color="#1b3e9e"/>
    <stop offset=".06" stop-color="#1b3e9e" stop-opacity=".87"/>
    <stop offset=".21" stop-color="#1b3e9d" stop-opacity=".61"/>
    <stop offset=".36" stop-color="#1a3d9d" stop-opacity=".39"/>
    <stop offset=".52" stop-color="#1a3d9c" stop-opacity=".22"/>
    <stop offset=".67" stop-color="#1a3d9c" stop-opacity=".1"/>
    <stop offset=".83" stop-color="#1a3d9c" stop-opacity=".02"/>
    <stop offset="1" stop-color="#1a3d9c" stop-opacity="0"/>
  </radialGradient>
  <radialGradient id="I" cx="0" cy="0" r="1" gradientTransform="matrix(5.11768 20.6841 -13.65553 3.37867 30.921 42.889)" gradientUnits="userSpaceOnUse">
    <stop offset="0" stop-color="#183991"/>
    <stop offset=".03" stop-color="#183992" stop-opacity=".95"/>
    <stop offset=".18" stop-color="#193a95" stop-opacity=".66"/>
    <stop offset=".34" stop-color="#193b97" stop-opacity=".42"/>
    <stop offset=".5" stop-color="#1a3c99" stop-opacity=".24"/>
    <stop offset=".66" stop-color="#1a3d9b" stop-opacity=".1"/>
    <stop offset=".82" stop-color="#1a3d9c" stop-opacity=".03"/>
    <stop offset="1" stop-color="#1a3d9c" stop-opacity="0"/>
  </radialGradient>
  <radialGradient id="J" cx="0" cy="0" r="1" gradientTransform="matrix(.84085 16.8164 -14.8033 .74019 34.679 45.052)" gradientUnits="userSpaceOnUse">
    <stop offset=".04" stop-color="#2453d6" stop-opacity=".6"/>
    <stop offset=".2" stop-color="#2453d6" stop-opacity=".49"/>
    <stop offset=".52" stop-color="#2453d6" stop-opacity=".2"/>
    <stop offset=".73" stop-color="#2453d6" stop-opacity="0"/>
  </radialGradient>
  <linearGradient id="K" x1="68.602" x2="49.574" y1="6.004" y2="53.037" gradientUnits="userSpaceOnUse">
    <stop offset="0" stop-color="#3774ff"/>
    <stop offset=".05" stop-color="#3774ff" stop-opacity=".91"/>
    <stop offset=".16" stop-color="#3774ff" stop-opacity=".66"/>
    <stop offset=".32" stop-color="#3774ff" stop-opacity=".28"/>
    <stop offset=".43" stop-color="#3774ff" stop-opacity="0"/>
  </linearGradient>
  <path fill="url(#a)" d="M25.57 50.616c1.023 3.45 2.3 6.9 4.09 10.094.766 1.406 1.533 2.811 2.938 3.705l.767.384c2.044.383 3.194-1.278 3.96-2.683a73 73 0 0 0 2.684-7.411c.128-.511.255-.894.383-1.406.256-.894.511-1.788.639-2.683l9.072-24.276c1.916-2.555 4.344-4.6 7.155-6.005 2.683-1.533 5.75-2.3 8.943-2.3 4.472 0 8.944 1.533 12.522 4.344 6.005 4.472 9.455 13.416 9.455 13.416a9.2 9.2 0 0 1 .766 3.705c0 1.15-.255 2.3-.638 3.45-.512 1.022-1.15 2.044-1.917 2.939-.767.766-1.789 1.533-2.939 1.916-1.022.384-2.3.64-3.45.64-1.277 0-2.555-.256-3.705-.895-1.15-.511-2.172-1.406-3.066-2.3 0 0 0-.128-.128-.128a16.4 16.4 0 0 1-1.405-2.555c-.512-1.15-1.023-2.172-1.661-3.194-.384-.511-.64-1.023-1.023-1.534-.255-.51-.638-.894-1.15-1.277-.894-.64-1.916-.895-2.81-.384l-.128.128c-1.022.639-1.661 2.044-2.172 3.194-1.406 3.067-2.172 6.133-3.067 9.455l-.383 1.917-3.833 12.266-5.239 11.627c-1.916 2.427-4.344 4.472-7.155 5.75-2.81 1.405-5.877 2.044-8.944 2.171-12.904.256-18.91-11.371-18.91-11.371-7.282-12.01-9.454-27.854-9.965-32.964C5 37.2 5 36.56 5 36.56c0-1.533.383-3.194 1.278-4.471A8.3 8.3 0 0 1 9.6 28.768c1.533-.767 3.066-1.022 4.727-1.022 1.533 0 2.939.51 4.344 1.277 1.022.64 1.917 1.406 2.556 2.3 1.15 1.661 1.533 3.833 1.66 5.878a78 78 0 0 0 2.684 13.415"/>
  <path fill="url(#b)" d="M25.57 50.616c1.023 3.45 2.3 6.9 4.09 10.094.766 1.406 1.533 2.811 2.938 3.705l.767.384c2.044.383 3.194-1.278 3.96-2.683a73 73 0 0 0 2.684-7.411c.128-.511.255-.894.383-1.406.256-.894.511-1.788.639-2.683l9.072-24.276c1.916-2.555 4.344-4.6 7.155-6.005 2.683-1.533 5.75-2.3 8.943-2.3 4.472 0 8.944 1.533 12.522 4.344 6.005 4.472 9.455 13.416 9.455 13.416a9.2 9.2 0 0 1 .766 3.705c0 1.15-.255 2.3-.638 3.45-.512 1.022-1.15 2.044-1.917 2.939-.767.766-1.789 1.533-2.939 1.916-1.022.384-2.3.64-3.45.64-1.277 0-2.555-.256-3.705-.895-1.15-.511-2.172-1.406-3.066-2.3 0 0 0-.128-.128-.128a16.4 16.4 0 0 1-1.405-2.555c-.512-1.15-1.023-2.172-1.661-3.194-.384-.511-.64-1.023-1.023-1.534-.255-.51-.638-.894-1.15-1.277-.894-.64-1.916-.895-2.81-.384l-.128.128c-1.022.639-1.661 2.044-2.172 3.194-1.406 3.067-2.172 6.133-3.067 9.455l-.383 1.917-3.833 12.266-5.239 11.627c-1.916 2.427-4.344 4.472-7.155 5.75-2.81 1.405-5.877 2.044-8.944 2.171-12.904.256-18.91-11.371-18.91-11.371-7.282-12.01-9.454-27.854-9.965-32.964C5 37.2 5 36.56 5 36.56c0-1.533.383-3.194 1.278-4.471A8.3 8.3 0 0 1 9.6 28.768c1.533-.767 3.066-1.022 4.727-1.022 1.533 0 2.939.51 4.344 1.277 1.022.64 1.917 1.406 2.556 2.3 1.15 1.661 1.533 3.833 1.66 5.878a78 78 0 0 0 2.684 13.415"/>
  <path fill="url(#c)" d="M25.57 50.616c1.023 3.45 2.3 6.9 4.09 10.094.766 1.406 1.533 2.811 2.938 3.705l.767.384c2.044.383 3.194-1.278 3.96-2.683a73 73 0 0 0 2.684-7.411c.128-.511.255-.894.383-1.406.256-.894.511-1.788.639-2.683l9.072-24.276c1.916-2.555 4.344-4.6 7.155-6.005 2.683-1.533 5.75-2.3 8.943-2.3 4.472 0 8.944 1.533 12.522 4.344 6.005 4.472 9.455 13.416 9.455 13.416a9.2 9.2 0 0 1 .766 3.705c0 1.15-.255 2.3-.638 3.45-.512 1.022-1.15 2.044-1.917 2.939-.767.766-1.789 1.533-2.939 1.916-1.022.384-2.3.64-3.45.64-1.277 0-2.555-.256-3.705-.895-1.15-.511-2.172-1.406-3.066-2.3 0 0 0-.128-.128-.128a16.4 16.4 0 0 1-1.405-2.555c-.512-1.15-1.023-2.172-1.661-3.194-.384-.511-.64-1.023-1.023-1.534-.255-.51-.638-.894-1.15-1.277-.894-.64-1.916-.895-2.81-.384l-.128.128c-1.022.639-1.661 2.044-2.172 3.194-1.406 3.067-2.172 6.133-3.067 9.455l-.383 1.917-3.833 12.266-5.239 11.627c-1.916 2.427-4.344 4.472-7.155 5.75-2.81 1.405-5.877 2.044-8.944 2.171-12.904.256-18.91-11.371-18.91-11.371-7.282-12.01-9.454-27.854-9.965-32.964C5 37.2 5 36.56 5 36.56c0-1.533.383-3.194 1.278-4.471A8.3 8.3 0 0 1 9.6 28.768c1.533-.767 3.066-1.022 4.727-1.022 1.533 0 2.939.51 4.344 1.277 1.022.64 1.917 1.406 2.556 2.3 1.15 1.661 1.533 3.833 1.66 5.878a78 78 0 0 0 2.684 13.415"/>
  <path fill="url(#d)" d="M25.57 50.616c1.023 3.45 2.3 6.9 4.09 10.094.766 1.406 1.533 2.811 2.938 3.705l.767.384c2.044.383 3.194-1.278 3.96-2.683a73 73 0 0 0 2.684-7.411c.128-.511.255-.894.383-1.406.256-.894.511-1.788.639-2.683l9.072-24.276c1.916-2.555 4.344-4.6 7.155-6.005 2.683-1.533 5.75-2.3 8.943-2.3 4.472 0 8.944 1.533 12.522 4.344 6.005 4.472 9.455 13.416 9.455 13.416a9.2 9.2 0 0 1 .766 3.705c0 1.15-.255 2.3-.638 3.45-.512 1.022-1.15 2.044-1.917 2.939-.767.766-1.789 1.533-2.939 1.916-1.022.384-2.3.64-3.45.64-1.277 0-2.555-.256-3.705-.895-1.15-.511-2.172-1.406-3.066-2.3 0 0 0-.128-.128-.128a16.4 16.4 0 0 1-1.405-2.555c-.512-1.15-1.023-2.172-1.661-3.194-.384-.511-.64-1.023-1.023-1.534-.255-.51-.638-.894-1.15-1.277-.894-.64-1.916-.895-2.81-.384l-.128.128c-1.022.639-1.661 2.044-2.172 3.194-1.406 3.067-2.172 6.133-3.067 9.455l-.383 1.917-3.833 12.266-5.239 11.627c-1.916 2.427-4.344 4.472-7.155 5.75-2.81 1.405-5.877 2.044-8.944 2.171-12.904.256-18.91-11.371-18.91-11.371-7.282-12.01-9.454-27.854-9.965-32.964C5 37.2 5 36.56 5 36.56c0-1.533.383-3.194 1.278-4.471A8.3 8.3 0 0 1 9.6 28.768c1.533-.767 3.066-1.022 4.727-1.022 1.533 0 2.939.51 4.344 1.277 1.022.64 1.917 1.406 2.556 2.3 1.15 1.661 1.533 3.833 1.66 5.878a78 78 0 0 0 2.684 13.415"/>
  <path fill="url(#e)" d="M25.57 50.616c1.023 3.45 2.3 6.9 4.09 10.094.766 1.406 1.533 2.811 2.938 3.705l.767.384c2.044.383 3.194-1.278 3.96-2.683a73 73 0 0 0 2.684-7.411c.128-.511.255-.894.383-1.406.256-.894.511-1.788.639-2.683l9.072-24.276c1.916-2.555 4.344-4.6 7.155-6.005 2.683-1.533 5.75-2.3 8.943-2.3 4.472 0 8.944 1.533 12.522 4.344 6.005 4.472 9.455 13.416 9.455 13.416a9.2 9.2 0 0 1 .766 3.705c0 1.15-.255 2.3-.638 3.45-.512 1.022-1.15 2.044-1.917 2.939-.767.766-1.789 1.533-2.939 1.916-1.022.384-2.3.64-3.45.64-1.277 0-2.555-.256-3.705-.895-1.15-.511-2.172-1.406-3.066-2.3 0 0 0-.128-.128-.128a16.4 16.4 0 0 1-1.405-2.555c-.512-1.15-1.023-2.172-1.661-3.194-.384-.511-.64-1.023-1.023-1.534-.255-.51-.638-.894-1.15-1.277-.894-.64-1.916-.895-2.81-.384l-.128.128c-1.022.639-1.661 2.044-2.172 3.194-1.406 3.067-2.172 6.133-3.067 9.455l-.383 1.917-3.833 12.266-5.239 11.627c-1.916 2.427-4.344 4.472-7.155 5.75-2.81 1.405-5.877 2.044-8.944 2.171-12.904.256-18.91-11.371-18.91-11.371-7.282-12.01-9.454-27.854-9.965-32.964C5 37.2 5 36.56 5 36.56c0-1.533.383-3.194 1.278-4.471A8.3 8.3 0 0 1 9.6 28.768c1.533-.767 3.066-1.022 4.727-1.022 1.533 0 2.939.51 4.344 1.277 1.022.64 1.917 1.406 2.556 2.3 1.15 1.661 1.533 3.833 1.66 5.878a78 78 0 0 0 2.684 13.415"/>
  <path fill="url(#f)" d="M25.57 50.616c1.023 3.45 2.3 6.9 4.09 10.094.766 1.406 1.533 2.811 2.938 3.705l.767.384c2.044.383 3.194-1.278 3.96-2.683a73 73 0 0 0 2.684-7.411c.128-.511.255-.894.383-1.406.256-.894.511-1.788.639-2.683l9.072-24.276c1.916-2.555 4.344-4.6 7.155-6.005 2.683-1.533 5.75-2.3 8.943-2.3 4.472 0 8.944 1.533 12.522 4.344 6.005 4.472 9.455 13.416 9.455 13.416a9.2 9.2 0 0 1 .766 3.705c0 1.15-.255 2.3-.638 3.45-.512 1.022-1.15 2.044-1.917 2.939-.767.766-1.789 1.533-2.939 1.916-1.022.384-2.3.64-3.45.64-1.277 0-2.555-.256-3.705-.895-1.15-.511-2.172-1.406-3.066-2.3 0 0 0-.128-.128-.128a16.4 16.4 0 0 1-1.405-2.555c-.512-1.15-1.023-2.172-1.661-3.194-.384-.511-.64-1.023-1.023-1.534-.255-.51-.638-.894-1.15-1.277-.894-.64-1.916-.895-2.81-.384l-.128.128c-1.022.639-1.661 2.044-2.172 3.194-1.406 3.067-2.172 6.133-3.067 9.455l-.383 1.917-3.833 12.266-5.239 11.627c-1.916 2.427-4.344 4.472-7.155 5.75-2.81 1.405-5.877 2.044-8.944 2.171-12.904.256-18.91-11.371-18.91-11.371-7.282-12.01-9.454-27.854-9.965-32.964C5 37.2 5 36.56 5 36.56c0-1.533.383-3.194 1.278-4.471A8.3 8.3 0 0 1 9.6 28.768c1.533-.767 3.066-1.022 4.727-1.022 1.533 0 2.939.51 4.344 1.277 1.022.64 1.917 1.406 2.556 2.3 1.15 1.661 1.533 3.833 1.66 5.878a78 78 0 0 0 2.684 13.415"/>
  <path fill="url(#g)" d="M25.57 50.616c1.023 3.45 2.3 6.9 4.09 10.094.766 1.406 1.533 2.811 2.938 3.705l.767.384c2.044.383 3.194-1.278 3.96-2.683a73 73 0 0 0 2.684-7.411c.128-.511.255-.894.383-1.406.256-.894.511-1.788.639-2.683l9.072-24.276c1.916-2.555 4.344-4.6 7.155-6.005 2.683-1.533 5.75-2.3 8.943-2.3 4.472 0 8.944 1.533 12.522 4.344 6.005 4.472 9.455 13.416 9.455 13.416a9.2 9.2 0 0 1 .766 3.705c0 1.15-.255 2.3-.638 3.45-.512 1.022-1.15 2.044-1.917 2.939-.767.766-1.789 1.533-2.939 1.916-1.022.384-2.3.64-3.45.64-1.277 0-2.555-.256-3.705-.895-1.15-.511-2.172-1.406-3.066-2.3 0 0 0-.128-.128-.128a16.4 16.4 0 0 1-1.405-2.555c-.512-1.15-1.023-2.172-1.661-3.194-.384-.511-.64-1.023-1.023-1.534-.255-.51-.638-.894-1.15-1.277-.894-.64-1.916-.895-2.81-.384l-.128.128c-1.022.639-1.661 2.044-2.172 3.194-1.406 3.067-2.172 6.133-3.067 9.455l-.383 1.917-3.833 12.266-5.239 11.627c-1.916 2.427-4.344 4.472-7.155 5.75-2.81 1.405-5.877 2.044-8.944 2.171-12.904.256-18.91-11.371-18.91-11.371-7.282-12.01-9.454-27.854-9.965-32.964C5 37.2 5 36.56 5 36.56c0-1.533.383-3.194 1.278-4.471A8.3 8.3 0 0 1 9.6 28.768c1.533-.767 3.066-1.022 4.727-1.022 1.533 0 2.939.51 4.344 1.277 1.022.64 1.917 1.406 2.556 2.3 1.15 1.661 1.533 3.833 1.66 5.878a78 78 0 0 0 2.684 13.415"/>
  <path fill="url(#i)" d="M25.57 50.616c1.023 3.45 2.3 6.9 4.09 10.094.766 1.406 1.533 2.811 2.938 3.705l.767.384c2.044.383 3.194-1.278 3.96-2.683a73 73 0 0 0 2.684-7.411c.128-.511.255-.894.383-1.406.256-.894.511-1.788.639-2.683l9.072-24.276c1.916-2.555 4.344-4.6 7.155-6.005 2.683-1.533 5.75-2.3 8.943-2.3 4.472 0 8.944 1.533 12.522 4.344 6.005 4.472 9.455 13.416 9.455 13.416a9.2 9.2 0 0 1 .766 3.705c0 1.15-.255 2.3-.638 3.45-.512 1.022-1.15 2.044-1.917 2.939-.767.766-1.789 1.533-2.939 1.916-1.022.384-2.3.64-3.45.64-1.277 0-2.555-.256-3.705-.895-1.15-.511-2.172-1.406-3.066-2.3 0 0 0-.128-.128-.128a16.4 16.4 0 0 1-1.405-2.555c-.512-1.15-1.023-2.172-1.661-3.194-.384-.511-.64-1.023-1.023-1.534-.255-.51-.638-.894-1.15-1.277-.894-.64-1.916-.895-2.81-.384l-.128.128c-1.022.639-1.661 2.044-2.172 3.194-1.406 3.067-2.172 6.133-3.067 9.455l-.383 1.917-3.833 12.266-5.239 11.627c-1.916 2.427-4.344 4.472-7.155 5.75-2.81 1.405-5.877 2.044-8.944 2.171-12.904.256-18.91-11.371-18.91-11.371-7.282-12.01-9.454-27.854-9.965-32.964C5 37.2 5 36.56 5 36.56c0-1.533.383-3.194 1.278-4.471A8.3 8.3 0 0 1 9.6 28.768c1.533-.767 3.066-1.022 4.727-1.022 1.533 0 2.939.51 4.344 1.277 1.022.64 1.917 1.406 2.556 2.3 1.15 1.661 1.533 3.833 1.66 5.878a78 78 0 0 0 2.684 13.415"/>
  <path fill="url(#j)" d="M25.57 50.616c1.023 3.45 2.3 6.9 4.09 10.094.766 1.406 1.533 2.811 2.938 3.705l.767.384c2.044.383 3.194-1.278 3.96-2.683a73 73 0 0 0 2.684-7.411c.128-.511.255-.894.383-1.406.256-.894.511-1.788.639-2.683l9.072-24.276c1.916-2.555 4.344-4.6 7.155-6.005 2.683-1.533 5.75-2.3 8.943-2.3 4.472 0 8.944 1.533 12.522 4.344 6.005 4.472 9.455 13.416 9.455 13.416a9.2 9.2 0 0 1 .766 3.705c0 1.15-.255 2.3-.638 3.45-.512 1.022-1.15 2.044-1.917 2.939-.767.766-1.789 1.533-2.939 1.916-1.022.384-2.3.64-3.45.64-1.277 0-2.555-.256-3.705-.895-1.15-.511-2.172-1.406-3.066-2.3 0 0 0-.128-.128-.128a16.4 16.4 0 0 1-1.405-2.555c-.512-1.15-1.023-2.172-1.661-3.194-.384-.511-.64-1.023-1.023-1.534-.255-.51-.638-.894-1.15-1.277-.894-.64-1.916-.895-2.81-.384l-.128.128c-1.022.639-1.661 2.044-2.172 3.194-1.406 3.067-2.172 6.133-3.067 9.455l-.383 1.917-3.833 12.266-5.239 11.627c-1.916 2.427-4.344 4.472-7.155 5.75-2.81 1.405-5.877 2.044-8.944 2.171-12.904.256-18.91-11.371-18.91-11.371-7.282-12.01-9.454-27.854-9.965-32.964C5 37.2 5 36.56 5 36.56c0-1.533.383-3.194 1.278-4.471A8.3 8.3 0 0 1 9.6 28.768c1.533-.767 3.066-1.022 4.727-1.022 1.533 0 2.939.51 4.344 1.277 1.022.64 1.917 1.406 2.556 2.3 1.15 1.661 1.533 3.833 1.66 5.878a78 78 0 0 0 2.684 13.415"/>
  <path fill="url(#k)" d="M25.57 50.616c1.023 3.45 2.3 6.9 4.09 10.094.766 1.406 1.533 2.811 2.938 3.705l.767.384c2.044.383 3.194-1.278 3.96-2.683a73 73 0 0 0 2.684-7.411c.128-.511.255-.894.383-1.406.256-.894.511-1.788.639-2.683l9.072-24.276c1.916-2.555 4.344-4.6 7.155-6.005 2.683-1.533 5.75-2.3 8.943-2.3 4.472 0 8.944 1.533 12.522 4.344 6.005 4.472 9.455 13.416 9.455 13.416a9.2 9.2 0 0 1 .766 3.705c0 1.15-.255 2.3-.638 3.45-.512 1.022-1.15 2.044-1.917 2.939-.767.766-1.789 1.533-2.939 1.916-1.022.384-2.3.64-3.45.64-1.277 0-2.555-.256-3.705-.895-1.15-.511-2.172-1.406-3.066-2.3 0 0 0-.128-.128-.128a16.4 16.4 0 0 1-1.405-2.555c-.512-1.15-1.023-2.172-1.661-3.194-.384-.511-.64-1.023-1.023-1.534-.255-.51-.638-.894-1.15-1.277-.894-.64-1.916-.895-2.81-.384l-.128.128c-1.022.639-1.661 2.044-2.172 3.194-1.406 3.067-2.172 6.133-3.067 9.455l-.383 1.917-3.833 12.266-5.239 11.627c-1.916 2.427-4.344 4.472-7.155 5.75-2.81 1.405-5.877 2.044-8.944 2.171-12.904.256-18.91-11.371-18.91-11.371-7.282-12.01-9.454-27.854-9.965-32.964C5 37.2 5 36.56 5 36.56c0-1.533.383-3.194 1.278-4.471A8.3 8.3 0 0 1 9.6 28.768c1.533-.767 3.066-1.022 4.727-1.022 1.533 0 2.939.51 4.344 1.277 1.022.64 1.917 1.406 2.556 2.3 1.15 1.661 1.533 3.833 1.66 5.878a78 78 0 0 0 2.684 13.415"/>
  <path fill="url(#l)" d="M25.57 50.616c1.023 3.45 2.3 6.9 4.09 10.094.766 1.406 1.533 2.811 2.938 3.705l.767.384c2.044.383 3.194-1.278 3.96-2.683a73 73 0 0 0 2.684-7.411c.128-.511.255-.894.383-1.406.256-.894.511-1.788.639-2.683l9.072-24.276c1.916-2.555 4.344-4.6 7.155-6.005 2.683-1.533 5.75-2.3 8.943-2.3 4.472 0 8.944 1.533 12.522 4.344 6.005 4.472 9.455 13.416 9.455 13.416a9.2 9.2 0 0 1 .766 3.705c0 1.15-.255 2.3-.638 3.45-.512 1.022-1.15 2.044-1.917 2.939-.767.766-1.789 1.533-2.939 1.916-1.022.384-2.3.64-3.45.64-1.277 0-2.555-.256-3.705-.895-1.15-.511-2.172-1.406-3.066-2.3 0 0 0-.128-.128-.128a16.4 16.4 0 0 1-1.405-2.555c-.512-1.15-1.023-2.172-1.661-3.194-.384-.511-.64-1.023-1.023-1.534-.255-.51-.638-.894-1.15-1.277-.894-.64-1.916-.895-2.81-.384l-.128.128c-1.022.639-1.661 2.044-2.172 3.194-1.406 3.067-2.172 6.133-3.067 9.455l-.383 1.917-3.833 12.266-5.239 11.627c-1.916 2.427-4.344 4.472-7.155 5.75-2.81 1.405-5.877 2.044-8.944 2.171-12.904.256-18.91-11.371-18.91-11.371-7.282-12.01-9.454-27.854-9.965-32.964C5 37.2 5 36.56 5 36.56c0-1.533.383-3.194 1.278-4.471A8.3 8.3 0 0 1 9.6 28.768c1.533-.767 3.066-1.022 4.727-1.022 1.533 0 2.939.51 4.344 1.277 1.022.64 1.917 1.406 2.556 2.3 1.15 1.661 1.533 3.833 1.66 5.878a78 78 0 0 0 2.684 13.415"/>
  <path fill="url(#m)" d="M25.57 50.616c1.023 3.45 2.3 6.9 4.09 10.094.766 1.406 1.533 2.811 2.938 3.705l.767.384c2.044.383 3.194-1.278 3.96-2.683a73 73 0 0 0 2.684-7.411c.128-.511.255-.894.383-1.406.256-.894.511-1.788.639-2.683l9.072-24.276c1.916-2.555 4.344-4.6 7.155-6.005 2.683-1.533 5.75-2.3 8.943-2.3 4.472 0 8.944 1.533 12.522 4.344 6.005 4.472 9.455 13.416 9.455 13.416a9.2 9.2 0 0 1 .766 3.705c0 1.15-.255 2.3-.638 3.45-.512 1.022-1.15 2.044-1.917 2.939-.767.766-1.789 1.533-2.939 1.916-1.022.384-2.3.64-3.45.64-1.277 0-2.555-.256-3.705-.895-1.15-.511-2.172-1.406-3.066-2.3 0 0 0-.128-.128-.128a16.4 16.4 0 0 1-1.405-2.555c-.512-1.15-1.023-2.172-1.661-3.194-.384-.511-.64-1.023-1.023-1.534-.255-.51-.638-.894-1.15-1.277-.894-.64-1.916-.895-2.81-.384l-.128.128c-1.022.639-1.661 2.044-2.172 3.194-1.406 3.067-2.172 6.133-3.067 9.455l-.383 1.917-3.833 12.266-5.239 11.627c-1.916 2.427-4.344 4.472-7.155 5.75-2.81 1.405-5.877 2.044-8.944 2.171-12.904.256-18.91-11.371-18.91-11.371-7.282-12.01-9.454-27.854-9.965-32.964C5 37.2 5 36.56 5 36.56c0-1.533.383-3.194 1.278-4.471A8.3 8.3 0 0 1 9.6 28.768c1.533-.767 3.066-1.022 4.727-1.022 1.533 0 2.939.51 4.344 1.277 1.022.64 1.917 1.406 2.556 2.3 1.15 1.661 1.533 3.833 1.66 5.878a78 78 0 0 0 2.684 13.415"/>
  <path fill="url(#n)" d="M25.57 50.616c1.023 3.45 2.3 6.9 4.09 10.094.766 1.406 1.533 2.811 2.938 3.705l.767.384c2.044.383 3.194-1.278 3.96-2.683a73 73 0 0 0 2.684-7.411c.128-.511.255-.894.383-1.406.256-.894.511-1.788.639-2.683l9.072-24.276c1.916-2.555 4.344-4.6 7.155-6.005 2.683-1.533 5.75-2.3 8.943-2.3 4.472 0 8.944 1.533 12.522 4.344 6.005 4.472 9.455 13.416 9.455 13.416a9.2 9.2 0 0 1 .766 3.705c0 1.15-.255 2.3-.638 3.45-.512 1.022-1.15 2.044-1.917 2.939-.767.766-1.789 1.533-2.939 1.916-1.022.384-2.3.64-3.45.64-1.277 0-2.555-.256-3.705-.895-1.15-.511-2.172-1.406-3.066-2.3 0 0 0-.128-.128-.128a16.4 16.4 0 0 1-1.405-2.555c-.512-1.15-1.023-2.172-1.661-3.194-.384-.511-.64-1.023-1.023-1.534-.255-.51-.638-.894-1.15-1.277-.894-.64-1.916-.895-2.81-.384l-.128.128c-1.022.639-1.661 2.044-2.172 3.194-1.406 3.067-2.172 6.133-3.067 9.455l-.383 1.917-3.833 12.266-5.239 11.627c-1.916 2.427-4.344 4.472-7.155 5.75-2.81 1.405-5.877 2.044-8.944 2.171-12.904.256-18.91-11.371-18.91-11.371-7.282-12.01-9.454-27.854-9.965-32.964C5 37.2 5 36.56 5 36.56c0-1.533.383-3.194 1.278-4.471A8.3 8.3 0 0 1 9.6 28.768c1.533-.767 3.066-1.022 4.727-1.022 1.533 0 2.939.51 4.344 1.277 1.022.64 1.917 1.406 2.556 2.3 1.15 1.661 1.533 3.833 1.66 5.878a78 78 0 0 0 2.684 13.415"/>
  <path fill="url(#o)" d="M25.57 50.616c1.023 3.45 2.3 6.9 4.09 10.094.766 1.406 1.533 2.811 2.938 3.705l.767.384c2.044.383 3.194-1.278 3.96-2.683a73 73 0 0 0 2.684-7.411c.128-.511.255-.894.383-1.406.256-.894.511-1.788.639-2.683l9.072-24.276c1.916-2.555 4.344-4.6 7.155-6.005 2.683-1.533 5.75-2.3 8.943-2.3 4.472 0 8.944 1.533 12.522 4.344 6.005 4.472 9.455 13.416 9.455 13.416a9.2 9.2 0 0 1 .766 3.705c0 1.15-.255 2.3-.638 3.45-.512 1.022-1.15 2.044-1.917 2.939-.767.766-1.789 1.533-2.939 1.916-1.022.384-2.3.64-3.45.64-1.277 0-2.555-.256-3.705-.895-1.15-.511-2.172-1.406-3.066-2.3 0 0 0-.128-.128-.128a16.4 16.4 0 0 1-1.405-2.555c-.512-1.15-1.023-2.172-1.661-3.194-.384-.511-.64-1.023-1.023-1.534-.255-.51-.638-.894-1.15-1.277-.894-.64-1.916-.895-2.81-.384l-.128.128c-1.022.639-1.661 2.044-2.172 3.194-1.406 3.067-2.172 6.133-3.067 9.455l-.383 1.917-3.833 12.266-5.239 11.627c-1.916 2.427-4.344 4.472-7.155 5.75-2.81 1.405-5.877 2.044-8.944 2.171-12.904.256-18.91-11.371-18.91-11.371-7.282-12.01-9.454-27.854-9.965-32.964C5 37.2 5 36.56 5 36.56c0-1.533.383-3.194 1.278-4.471A8.3 8.3 0 0 1 9.6 28.768c1.533-.767 3.066-1.022 4.727-1.022 1.533 0 2.939.51 4.344 1.277 1.022.64 1.917 1.406 2.556 2.3 1.15 1.661 1.533 3.833 1.66 5.878a78 78 0 0 0 2.684 13.415"/>
  <path fill="url(#p)" d="M25.57 50.616c1.023 3.45 2.3 6.9 4.09 10.094.766 1.406 1.533 2.811 2.938 3.705l.767.384c2.044.383 3.194-1.278 3.96-2.683a73 73 0 0 0 2.684-7.411c.128-.511.255-.894.383-1.406.256-.894.511-1.788.639-2.683l9.072-24.276c1.916-2.555 4.344-4.6 7.155-6.005 2.683-1.533 5.75-2.3 8.943-2.3 4.472 0 8.944 1.533 12.522 4.344 6.005 4.472 9.455 13.416 9.455 13.416a9.2 9.2 0 0 1 .766 3.705c0 1.15-.255 2.3-.638 3.45-.512 1.022-1.15 2.044-1.917 2.939-.767.766-1.789 1.533-2.939 1.916-1.022.384-2.3.64-3.45.64-1.277 0-2.555-.256-3.705-.895-1.15-.511-2.172-1.406-3.066-2.3 0 0 0-.128-.128-.128a16.4 16.4 0 0 1-1.405-2.555c-.512-1.15-1.023-2.172-1.661-3.194-.384-.511-.64-1.023-1.023-1.534-.255-.51-.638-.894-1.15-1.277-.894-.64-1.916-.895-2.81-.384l-.128.128c-1.022.639-1.661 2.044-2.172 3.194-1.406 3.067-2.172 6.133-3.067 9.455l-.383 1.917-3.833 12.266-5.239 11.627c-1.916 2.427-4.344 4.472-7.155 5.75-2.81 1.405-5.877 2.044-8.944 2.171-12.904.256-18.91-11.371-18.91-11.371-7.282-12.01-9.454-27.854-9.965-32.964C5 37.2 5 36.56 5 36.56c0-1.533.383-3.194 1.278-4.471A8.3 8.3 0 0 1 9.6 28.768c1.533-.767 3.066-1.022 4.727-1.022 1.533 0 2.939.51 4.344 1.277 1.022.64 1.917 1.406 2.556 2.3 1.15 1.661 1.533 3.833 1.66 5.878a78 78 0 0 0 2.684 13.415"/>
  <path fill="url(#q)" d="M25.57 50.616c1.023 3.45 2.3 6.9 4.09 10.094.766 1.406 1.533 2.811 2.938 3.705l.767.384c2.044.383 3.194-1.278 3.96-2.683a73 73 0 0 0 2.684-7.411c.128-.511.255-.894.383-1.406.256-.894.511-1.788.639-2.683l9.072-24.276c1.916-2.555 4.344-4.6 7.155-6.005 2.683-1.533 5.75-2.3 8.943-2.3 4.472 0 8.944 1.533 12.522 4.344 6.005 4.472 9.455 13.416 9.455 13.416a9.2 9.2 0 0 1 .766 3.705c0 1.15-.255 2.3-.638 3.45-.512 1.022-1.15 2.044-1.917 2.939-.767.766-1.789 1.533-2.939 1.916-1.022.384-2.3.64-3.45.64-1.277 0-2.555-.256-3.705-.895-1.15-.511-2.172-1.406-3.066-2.3 0 0 0-.128-.128-.128a16.4 16.4 0 0 1-1.405-2.555c-.512-1.15-1.023-2.172-1.661-3.194-.384-.511-.64-1.023-1.023-1.534-.255-.51-.638-.894-1.15-1.277-.894-.64-1.916-.895-2.81-.384l-.128.128c-1.022.639-1.661 2.044-2.172 3.194-1.406 3.067-2.172 6.133-3.067 9.455l-.383 1.917-3.833 12.266-5.239 11.627c-1.916 2.427-4.344 4.472-7.155 5.75-2.81 1.405-5.877 2.044-8.944 2.171-12.904.256-18.91-11.371-18.91-11.371-7.282-12.01-9.454-27.854-9.965-32.964C5 37.2 5 36.56 5 36.56c0-1.533.383-3.194 1.278-4.471A8.3 8.3 0 0 1 9.6 28.768c1.533-.767 3.066-1.022 4.727-1.022 1.533 0 2.939.51 4.344 1.277 1.022.64 1.917 1.406 2.556 2.3 1.15 1.661 1.533 3.833 1.66 5.878a78 78 0 0 0 2.684 13.415"/>
  <path fill="url(#r)" d="M25.57 50.616c1.023 3.45 2.3 6.9 4.09 10.094.766 1.406 1.533 2.811 2.938 3.705l.767.384c2.044.383 3.194-1.278 3.96-2.683a73 73 0 0 0 2.684-7.411c.128-.511.255-.894.383-1.406.256-.894.511-1.788.639-2.683l9.072-24.276c1.916-2.555 4.344-4.6 7.155-6.005 2.683-1.533 5.75-2.3 8.943-2.3 4.472 0 8.944 1.533 12.522 4.344 6.005 4.472 9.455 13.416 9.455 13.416a9.2 9.2 0 0 1 .766 3.705c0 1.15-.255 2.3-.638 3.45-.512 1.022-1.15 2.044-1.917 2.939-.767.766-1.789 1.533-2.939 1.916-1.022.384-2.3.64-3.45.64-1.277 0-2.555-.256-3.705-.895-1.15-.511-2.172-1.406-3.066-2.3 0 0 0-.128-.128-.128a16.4 16.4 0 0 1-1.405-2.555c-.512-1.15-1.023-2.172-1.661-3.194-.384-.511-.64-1.023-1.023-1.534-.255-.51-.638-.894-1.15-1.277-.894-.64-1.916-.895-2.81-.384l-.128.128c-1.022.639-1.661 2.044-2.172 3.194-1.406 3.067-2.172 6.133-3.067 9.455l-.383 1.917-3.833 12.266-5.239 11.627c-1.916 2.427-4.344 4.472-7.155 5.75-2.81 1.405-5.877 2.044-8.944 2.171-12.904.256-18.91-11.371-18.91-11.371-7.282-12.01-9.454-27.854-9.965-32.964C5 37.2 5 36.56 5 36.56c0-1.533.383-3.194 1.278-4.471A8.3 8.3 0 0 1 9.6 28.768c1.533-.767 3.066-1.022 4.727-1.022 1.533 0 2.939.51 4.344 1.277 1.022.64 1.917 1.406 2.556 2.3 1.15 1.661 1.533 3.833 1.66 5.878a78 78 0 0 0 2.684 13.415"/>
  <path fill="url(#s)" d="M25.57 50.616c1.023 3.45 2.3 6.9 4.09 10.094.766 1.406 1.533 2.811 2.938 3.705l.767.384c2.044.383 3.194-1.278 3.96-2.683a73 73 0 0 0 2.684-7.411c.128-.511.255-.894.383-1.406.256-.894.511-1.788.639-2.683l9.072-24.276c1.916-2.555 4.344-4.6 7.155-6.005 2.683-1.533 5.75-2.3 8.943-2.3 4.472 0 8.944 1.533 12.522 4.344 6.005 4.472 9.455 13.416 9.455 13.416a9.2 9.2 0 0 1 .766 3.705c0 1.15-.255 2.3-.638 3.45-.512 1.022-1.15 2.044-1.917 2.939-.767.766-1.789 1.533-2.939 1.916-1.022.384-2.3.64-3.45.64-1.277 0-2.555-.256-3.705-.895-1.15-.511-2.172-1.406-3.066-2.3 0 0 0-.128-.128-.128a16.4 16.4 0 0 1-1.405-2.555c-.512-1.15-1.023-2.172-1.661-3.194-.384-.511-.64-1.023-1.023-1.534-.255-.51-.638-.894-1.15-1.277-.894-.64-1.916-.895-2.81-.384l-.128.128c-1.022.639-1.661 2.044-2.172 3.194-1.406 3.067-2.172 6.133-3.067 9.455l-.383 1.917-3.833 12.266-5.239 11.627c-1.916 2.427-4.344 4.472-7.155 5.75-2.81 1.405-5.877 2.044-8.944 2.171-12.904.256-18.91-11.371-18.91-11.371-7.282-12.01-9.454-27.854-9.965-32.964C5 37.2 5 36.56 5 36.56c0-1.533.383-3.194 1.278-4.471A8.3 8.3 0 0 1 9.6 28.768c1.533-.767 3.066-1.022 4.727-1.022 1.533 0 2.939.51 4.344 1.277 1.022.64 1.917 1.406 2.556 2.3 1.15 1.661 1.533 3.833 1.66 5.878a78 78 0 0 0 2.684 13.415"/>
  <path fill="url(#t)" d="M25.57 50.616c1.023 3.45 2.3 6.9 4.09 10.094.766 1.406 1.533 2.811 2.938 3.705l.767.384c2.044.383 3.194-1.278 3.96-2.683a73 73 0 0 0 2.684-7.411c.128-.511.255-.894.383-1.406.256-.894.511-1.788.639-2.683l9.072-24.276c1.916-2.555 4.344-4.6 7.155-6.005 2.683-1.533 5.75-2.3 8.943-2.3 4.472 0 8.944 1.533 12.522 4.344 6.005 4.472 9.455 13.416 9.455 13.416a9.2 9.2 0 0 1 .766 3.705c0 1.15-.255 2.3-.638 3.45-.512 1.022-1.15 2.044-1.917 2.939-.767.766-1.789 1.533-2.939 1.916-1.022.384-2.3.64-3.45.64-1.277 0-2.555-.256-3.705-.895-1.15-.511-2.172-1.406-3.066-2.3 0 0 0-.128-.128-.128a16.4 16.4 0 0 1-1.405-2.555c-.512-1.15-1.023-2.172-1.661-3.194-.384-.511-.64-1.023-1.023-1.534-.255-.51-.638-.894-1.15-1.277-.894-.64-1.916-.895-2.81-.384l-.128.128c-1.022.639-1.661 2.044-2.172 3.194-1.406 3.067-2.172 6.133-3.067 9.455l-.383 1.917-3.833 12.266-5.239 11.627c-1.916 2.427-4.344 4.472-7.155 5.75-2.81 1.405-5.877 2.044-8.944 2.171-12.904.256-18.91-11.371-18.91-11.371-7.282-12.01-9.454-27.854-9.965-32.964C5 37.2 5 36.56 5 36.56c0-1.533.383-3.194 1.278-4.471A8.3 8.3 0 0 1 9.6 28.768c1.533-.767 3.066-1.022 4.727-1.022 1.533 0 2.939.51 4.344 1.277 1.022.64 1.917 1.406 2.556 2.3 1.15 1.661 1.533 3.833 1.66 5.878a78 78 0 0 0 2.684 13.415"/>
  <path fill="url(#u)" d="M25.57 50.616c1.023 3.45 2.3 6.9 4.09 10.094.766 1.406 1.533 2.811 2.938 3.705l.767.384c2.044.383 3.194-1.278 3.96-2.683a73 73 0 0 0 2.684-7.411c.128-.511.255-.894.383-1.406.256-.894.511-1.788.639-2.683l9.072-24.276c1.916-2.555 4.344-4.6 7.155-6.005 2.683-1.533 5.75-2.3 8.943-2.3 4.472 0 8.944 1.533 12.522 4.344 6.005 4.472 9.455 13.416 9.455 13.416a9.2 9.2 0 0 1 .766 3.705c0 1.15-.255 2.3-.638 3.45-.512 1.022-1.15 2.044-1.917 2.939-.767.766-1.789 1.533-2.939 1.916-1.022.384-2.3.64-3.45.64-1.277 0-2.555-.256-3.705-.895-1.15-.511-2.172-1.406-3.066-2.3 0 0 0-.128-.128-.128a16.4 16.4 0 0 1-1.405-2.555c-.512-1.15-1.023-2.172-1.661-3.194-.384-.511-.64-1.023-1.023-1.534-.255-.51-.638-.894-1.15-1.277-.894-.64-1.916-.895-2.81-.384l-.128.128c-1.022.639-1.661 2.044-2.172 3.194-1.406 3.067-2.172 6.133-3.067 9.455l-.383 1.917-3.833 12.266-5.239 11.627c-1.916 2.427-4.344 4.472-7.155 5.75-2.81 1.405-5.877 2.044-8.944 2.171-12.904.256-18.91-11.371-18.91-11.371-7.282-12.01-9.454-27.854-9.965-32.964C5 37.2 5 36.56 5 36.56c0-1.533.383-3.194 1.278-4.471A8.3 8.3 0 0 1 9.6 28.768c1.533-.767 3.066-1.022 4.727-1.022 1.533 0 2.939.51 4.344 1.277 1.022.64 1.917 1.406 2.556 2.3 1.15 1.661 1.533 3.833 1.66 5.878a78 78 0 0 0 2.684 13.415"/>
  <path fill="url(#v)" d="m44.225 41.545 5.75-15.46c1.916-2.556 4.344-4.6 7.155-6.006 2.81-1.277 5.877-2.044 9.071-2.044 4.472 0 8.944 1.533 12.522 4.344 6.005 4.472 9.455 13.416 9.455 13.416a9.2 9.2 0 0 1 .766 3.705c0 1.15-.255 2.3-.639 3.45-.51 1.022-1.15 2.045-1.916 2.939-.767.767-1.789 1.533-2.939 1.916-1.022.384-2.3.64-3.45.64-1.277 0-2.555-.256-3.705-.895-1.15-.511-2.172-1.406-3.066-2.3 0 0 0-.128-.128-.128a16.4 16.4 0 0 1-1.406-2.555c-.51-1.15-1.022-2.172-1.66-3.194-.384-.511-.64-1.022-1.023-1.534-.255-.51-.639-.894-1.15-1.277-.894-.64-1.916-.895-2.81-.384l-.128.128c-1.022.639-1.661 2.045-2.172 3.194-1.406 3.067-2.172 6.133-3.067 9.455l-.383 1.917-3.833 12.266z"/>
  <path fill="url(#w)" d="M86.134 27.746c-.767 0-1.534.127-2.172.255a45 45 0 0 1 4.216 7.666 9.2 9.2 0 0 1 .766 3.706c0 1.15-.255 2.3-.638 3.45-.511 1.022-1.15 2.044-1.917 2.938s-1.789 1.533-2.939 1.917c-1.022.383-2.3.639-3.45.639-1.533 0-3.194-.384-4.471-1.278l-.895 3.45c-1.66 5.622-2.81 7.666-2.81 7.666-.64 1.533-1.406 2.939-2.3 4.344-.64.894-1.406 1.789-2.428 2.172-.383.128-.767.128-1.15.128q-.575 0-1.15-.384a6.5 6.5 0 0 1-1.66-2.044c-.512-.894-.895-1.789-1.279-2.683-.766-1.917-2.044-6.644-2.044-6.644l-1.278-4.983-1.277-4.983-.895-3.322c-2.3-8.56-5.622-12.777-5.622-12.777-2.555-3.705-6.26-6.388-10.477-7.922-4.855-1.788-9.966-.766-9.966-.766-8.05 1.533-12.266 7.027-14.054 9.71.894.256 1.66.511 2.427 1.022 1.022.64 1.917 1.406 2.556 2.3 1.15 1.661 1.533 3.833 1.66 5.878.512 4.472 1.406 8.816 2.556 13.16 2.683-9.072 6.005-13.288 6.005-13.288.384-.511.767-.894 1.278-1.15.256-.128.511-.256.894-.256.511 0 1.15.128 1.534.384.127 0 .127.127.255.127.383.384.767.767 1.15 1.278.639 1.278 1.278 2.428 1.789 3.833 1.022 2.811 1.916 6.389 1.916 6.389l2.556 10.221c1.916 7.028 3.45 10.35 3.45 10.35 3.96 9.071 9.966 11.627 9.966 11.627a22.8 22.8 0 0 0 9.582 2.555c3.194.128 6.389-.511 9.2-1.917 3.066-1.533 5.877-3.833 8.05-6.516 1.405-1.66 3.577-5.75 3.577-5.75 2.427-4.727 4.216-9.71 5.494-14.82.894-3.195 1.533-6.39 2.044-9.711.256-1.661.511-3.194.639-4.855.255-1.534.255-3.067-.128-4.6-.128-.256-.128-.511-.255-.767-.767-1.916-2.172-3.45-3.961-4.472-1.278-.894-2.811-1.277-4.344-1.277"/>
  <path fill="url(#y)" d="M86.134 27.746c-.767 0-1.534.127-2.172.255a45 45 0 0 1 4.216 7.666 9.2 9.2 0 0 1 .766 3.706c0 1.15-.255 2.3-.638 3.45-.511 1.022-1.15 2.044-1.917 2.938s-1.789 1.533-2.939 1.917c-1.022.383-2.3.639-3.45.639-1.533 0-3.194-.384-4.471-1.278l-.895 3.45c-1.66 5.622-2.81 7.666-2.81 7.666-.64 1.533-1.406 2.939-2.3 4.344-.64.894-1.406 1.789-2.428 2.172-.383.128-.767.128-1.15.128q-.575 0-1.15-.384a6.5 6.5 0 0 1-1.66-2.044c-.512-.894-.895-1.789-1.279-2.683-.766-1.917-2.044-6.644-2.044-6.644l-1.278-4.983-1.277-4.983-.895-3.322c-2.3-8.56-5.622-12.777-5.622-12.777-2.555-3.705-6.26-6.388-10.477-7.922-4.855-1.788-9.966-.766-9.966-.766-8.05 1.533-12.266 7.027-14.054 9.71.894.256 1.66.511 2.427 1.022 1.022.64 1.917 1.406 2.556 2.3 1.15 1.661 1.533 3.833 1.66 5.878.512 4.472 1.406 8.816 2.556 13.16 2.683-9.072 6.005-13.288 6.005-13.288.384-.511.767-.894 1.278-1.15.256-.128.511-.256.894-.256.511 0 1.15.128 1.534.384.127 0 .127.127.255.127.383.384.767.767 1.15 1.278.639 1.278 1.278 2.428 1.789 3.833 1.022 2.811 1.916 6.389 1.916 6.389l2.556 10.221c1.916 7.028 3.45 10.35 3.45 10.35 3.96 9.071 9.966 11.627 9.966 11.627a22.8 22.8 0 0 0 9.582 2.555c3.194.128 6.389-.511 9.2-1.917 3.066-1.533 5.877-3.833 8.05-6.516 1.405-1.66 3.577-5.75 3.577-5.75 2.427-4.727 4.216-9.71 5.494-14.82.894-3.195 1.533-6.39 2.044-9.711.256-1.661.511-3.194.639-4.855.255-1.534.255-3.067-.128-4.6-.128-.256-.128-.511-.255-.767-.767-1.916-2.172-3.45-3.961-4.472-1.278-.894-2.811-1.277-4.344-1.277"/>
  <path fill="url(#z)" d="M86.134 27.746c-.767 0-1.534.127-2.172.255a45 45 0 0 1 4.216 7.666 9.2 9.2 0 0 1 .766 3.706c0 1.15-.255 2.3-.638 3.45-.511 1.022-1.15 2.044-1.917 2.938s-1.789 1.533-2.939 1.917c-1.022.383-2.3.639-3.45.639-1.533 0-3.194-.384-4.471-1.278l-.895 3.45c-1.66 5.622-2.81 7.666-2.81 7.666-.64 1.533-1.406 2.939-2.3 4.344-.64.894-1.406 1.789-2.428 2.172-.383.128-.767.128-1.15.128q-.575 0-1.15-.384a6.5 6.5 0 0 1-1.66-2.044c-.512-.894-.895-1.789-1.279-2.683-.766-1.917-2.044-6.644-2.044-6.644l-1.278-4.983-1.277-4.983-.895-3.322c-2.3-8.56-5.622-12.777-5.622-12.777-2.555-3.705-6.26-6.388-10.477-7.922-4.855-1.788-9.966-.766-9.966-.766-8.05 1.533-12.266 7.027-14.054 9.71.894.256 1.66.511 2.427 1.022 1.022.64 1.917 1.406 2.556 2.3 1.15 1.661 1.533 3.833 1.66 5.878.512 4.472 1.406 8.816 2.556 13.16 2.683-9.072 6.005-13.288 6.005-13.288.384-.511.767-.894 1.278-1.15.256-.128.511-.256.894-.256.511 0 1.15.128 1.534.384.127 0 .127.127.255.127.383.384.767.767 1.15 1.278.639 1.278 1.278 2.428 1.789 3.833 1.022 2.811 1.916 6.389 1.916 6.389l2.556 10.221c1.916 7.028 3.45 10.35 3.45 10.35 3.96 9.071 9.966 11.627 9.966 11.627a22.8 22.8 0 0 0 9.582 2.555c3.194.128 6.389-.511 9.2-1.917 3.066-1.533 5.877-3.833 8.05-6.516 1.405-1.66 3.577-5.75 3.577-5.75 2.427-4.727 4.216-9.71 5.494-14.82.894-3.195 1.533-6.39 2.044-9.711.256-1.661.511-3.194.639-4.855.255-1.534.255-3.067-.128-4.6-.128-.256-.128-.511-.255-.767-.767-1.916-2.172-3.45-3.961-4.472-1.278-.894-2.811-1.277-4.344-1.277"/>
  <path fill="url(#A)" d="M86.134 27.746c-.767 0-1.534.127-2.172.255a45 45 0 0 1 4.216 7.666 9.2 9.2 0 0 1 .766 3.706c0 1.15-.255 2.3-.638 3.45-.511 1.022-1.15 2.044-1.917 2.938s-1.789 1.533-2.939 1.917c-1.022.383-2.3.639-3.45.639-1.533 0-3.194-.384-4.471-1.278l-.895 3.45c-1.66 5.622-2.81 7.666-2.81 7.666-.64 1.533-1.406 2.939-2.3 4.344-.64.894-1.406 1.789-2.428 2.172-.383.128-.767.128-1.15.128q-.575 0-1.15-.384a6.5 6.5 0 0 1-1.66-2.044c-.512-.894-.895-1.789-1.279-2.683-.766-1.917-2.044-6.644-2.044-6.644l-1.278-4.983-1.277-4.983-.895-3.322c-2.3-8.56-5.622-12.777-5.622-12.777-2.555-3.705-6.26-6.388-10.477-7.922-4.855-1.788-9.966-.766-9.966-.766-8.05 1.533-12.266 7.027-14.054 9.71.894.256 1.66.511 2.427 1.022 1.022.64 1.917 1.406 2.556 2.3 1.15 1.661 1.533 3.833 1.66 5.878.512 4.472 1.406 8.816 2.556 13.16 2.683-9.072 6.005-13.288 6.005-13.288.384-.511.767-.894 1.278-1.15.256-.128.511-.256.894-.256.511 0 1.15.128 1.534.384.127 0 .127.127.255.127.383.384.767.767 1.15 1.278.639 1.278 1.278 2.428 1.789 3.833 1.022 2.811 1.916 6.389 1.916 6.389l2.556 10.221c1.916 7.028 3.45 10.35 3.45 10.35 3.96 9.071 9.966 11.627 9.966 11.627a22.8 22.8 0 0 0 9.582 2.555c3.194.128 6.389-.511 9.2-1.917 3.066-1.533 5.877-3.833 8.05-6.516 1.405-1.66 3.577-5.75 3.577-5.75 2.427-4.727 4.216-9.71 5.494-14.82.894-3.195 1.533-6.39 2.044-9.711.256-1.661.511-3.194.639-4.855.255-1.534.255-3.067-.128-4.6-.128-.256-.128-.511-.255-.767-.767-1.916-2.172-3.45-3.961-4.472-1.278-.894-2.811-1.277-4.344-1.277"/>
  <path fill="url(#B)" d="M86.134 27.746c-.767 0-1.534.127-2.172.255a45 45 0 0 1 4.216 7.666 9.2 9.2 0 0 1 .766 3.706c0 1.15-.255 2.3-.638 3.45-.511 1.022-1.15 2.044-1.917 2.938s-1.789 1.533-2.939 1.917c-1.022.383-2.3.639-3.45.639-1.533 0-3.194-.384-4.471-1.278l-.895 3.45c-1.66 5.622-2.81 7.666-2.81 7.666-.64 1.533-1.406 2.939-2.3 4.344-.64.894-1.406 1.789-2.428 2.172-.383.128-.767.128-1.15.128q-.575 0-1.15-.384a6.5 6.5 0 0 1-1.66-2.044c-.512-.894-.895-1.789-1.279-2.683-.766-1.917-2.044-6.644-2.044-6.644l-1.278-4.983-1.277-4.983-.895-3.322c-2.3-8.56-5.622-12.777-5.622-12.777-2.555-3.705-6.26-6.388-10.477-7.922-4.855-1.788-9.966-.766-9.966-.766-8.05 1.533-12.266 7.027-14.054 9.71.894.256 1.66.511 2.427 1.022 1.022.64 1.917 1.406 2.556 2.3 1.15 1.661 1.533 3.833 1.66 5.878.512 4.472 1.406 8.816 2.556 13.16 2.683-9.072 6.005-13.288 6.005-13.288.384-.511.767-.894 1.278-1.15.256-.128.511-.256.894-.256.511 0 1.15.128 1.534.384.127 0 .127.127.255.127.383.384.767.767 1.15 1.278.639 1.278 1.278 2.428 1.789 3.833 1.022 2.811 1.916 6.389 1.916 6.389l2.556 10.221c1.916 7.028 3.45 10.35 3.45 10.35 3.96 9.071 9.966 11.627 9.966 11.627a22.8 22.8 0 0 0 9.582 2.555c3.194.128 6.389-.511 9.2-1.917 3.066-1.533 5.877-3.833 8.05-6.516 1.405-1.66 3.577-5.75 3.577-5.75 2.427-4.727 4.216-9.71 5.494-14.82.894-3.195 1.533-6.39 2.044-9.711.256-1.661.511-3.194.639-4.855.255-1.534.255-3.067-.128-4.6-.128-.256-.128-.511-.255-.767-.767-1.916-2.172-3.45-3.961-4.472-1.278-.894-2.811-1.277-4.344-1.277"/>
  <path fill="url(#C)" d="M86.134 27.746c-.767 0-1.534.127-2.172.255a45 45 0 0 1 4.216 7.666 9.2 9.2 0 0 1 .766 3.706c0 1.15-.255 2.3-.638 3.45-.511 1.022-1.15 2.044-1.917 2.938s-1.789 1.533-2.939 1.917c-1.022.383-2.3.639-3.45.639-1.533 0-3.194-.384-4.471-1.278l-.895 3.45c-1.66 5.622-2.81 7.666-2.81 7.666-.64 1.533-1.406 2.939-2.3 4.344-.64.894-1.406 1.789-2.428 2.172-.383.128-.767.128-1.15.128q-.575 0-1.15-.384a6.5 6.5 0 0 1-1.66-2.044c-.512-.894-.895-1.789-1.279-2.683-.766-1.917-2.044-6.644-2.044-6.644l-1.278-4.983-1.277-4.983-.895-3.322c-2.3-8.56-5.622-12.777-5.622-12.777-2.555-3.705-6.26-6.388-10.477-7.922-4.855-1.788-9.966-.766-9.966-.766-8.05 1.533-12.266 7.027-14.054 9.71.894.256 1.66.511 2.427 1.022 1.022.64 1.917 1.406 2.556 2.3 1.15 1.661 1.533 3.833 1.66 5.878.512 4.472 1.406 8.816 2.556 13.16 2.683-9.072 6.005-13.288 6.005-13.288.384-.511.767-.894 1.278-1.15.256-.128.511-.256.894-.256.511 0 1.15.128 1.534.384.127 0 .127.127.255.127.383.384.767.767 1.15 1.278.639 1.278 1.278 2.428 1.789 3.833 1.022 2.811 1.916 6.389 1.916 6.389l2.556 10.221c1.916 7.028 3.45 10.35 3.45 10.35 3.96 9.071 9.966 11.627 9.966 11.627a22.8 22.8 0 0 0 9.582 2.555c3.194.128 6.389-.511 9.2-1.917 3.066-1.533 5.877-3.833 8.05-6.516 1.405-1.66 3.577-5.75 3.577-5.75 2.427-4.727 4.216-9.71 5.494-14.82.894-3.195 1.533-6.39 2.044-9.711.256-1.661.511-3.194.639-4.855.255-1.534.255-3.067-.128-4.6-.128-.256-.128-.511-.255-.767-.767-1.916-2.172-3.45-3.961-4.472-1.278-.894-2.811-1.277-4.344-1.277"/>
  <path fill="url(#D)" d="M86.134 27.746c-.767 0-1.534.127-2.172.255a45 45 0 0 1 4.216 7.666 9.2 9.2 0 0 1 .766 3.706c0 1.15-.255 2.3-.638 3.45-.511 1.022-1.15 2.044-1.917 2.938s-1.789 1.533-2.939 1.917c-1.022.383-2.3.639-3.45.639-1.533 0-3.194-.384-4.471-1.278l-.895 3.45c-1.66 5.622-2.81 7.666-2.81 7.666-.64 1.533-1.406 2.939-2.3 4.344-.64.894-1.406 1.789-2.428 2.172-.383.128-.767.128-1.15.128q-.575 0-1.15-.384a6.5 6.5 0 0 1-1.66-2.044c-.512-.894-.895-1.789-1.279-2.683-.766-1.917-2.044-6.644-2.044-6.644l-1.278-4.983-1.277-4.983-.895-3.322c-2.3-8.56-5.622-12.777-5.622-12.777-2.555-3.705-6.26-6.388-10.477-7.922-4.855-1.788-9.966-.766-9.966-.766-8.05 1.533-12.266 7.027-14.054 9.71.894.256 1.66.511 2.427 1.022 1.022.64 1.917 1.406 2.556 2.3 1.15 1.661 1.533 3.833 1.66 5.878.512 4.472 1.406 8.816 2.556 13.16 2.683-9.072 6.005-13.288 6.005-13.288.384-.511.767-.894 1.278-1.15.256-.128.511-.256.894-.256.511 0 1.15.128 1.534.384.127 0 .127.127.255.127.383.384.767.767 1.15 1.278.639 1.278 1.278 2.428 1.789 3.833 1.022 2.811 1.916 6.389 1.916 6.389l2.556 10.221c1.916 7.028 3.45 10.35 3.45 10.35 3.96 9.071 9.966 11.627 9.966 11.627a22.8 22.8 0 0 0 9.582 2.555c3.194.128 6.389-.511 9.2-1.917 3.066-1.533 5.877-3.833 8.05-6.516 1.405-1.66 3.577-5.75 3.577-5.75 2.427-4.727 4.216-9.71 5.494-14.82.894-3.195 1.533-6.39 2.044-9.711.256-1.661.511-3.194.639-4.855.255-1.534.255-3.067-.128-4.6-.128-.256-.128-.511-.255-.767-.767-1.916-2.172-3.45-3.961-4.472-1.278-.894-2.811-1.277-4.344-1.277"/>
  <path fill="url(#E)" d="M86.134 27.746c-.767 0-1.534.127-2.172.255a45 45 0 0 1 4.216 7.666 9.2 9.2 0 0 1 .766 3.706c0 1.15-.255 2.3-.638 3.45-.511 1.022-1.15 2.044-1.917 2.938s-1.789 1.533-2.939 1.917c-1.022.383-2.3.639-3.45.639-1.533 0-3.194-.384-4.471-1.278l-.895 3.45c-1.66 5.622-2.81 7.666-2.81 7.666-.64 1.533-1.406 2.939-2.3 4.344-.64.894-1.406 1.789-2.428 2.172-.383.128-.767.128-1.15.128q-.575 0-1.15-.384a6.5 6.5 0 0 1-1.66-2.044c-.512-.894-.895-1.789-1.279-2.683-.766-1.917-2.044-6.644-2.044-6.644l-1.278-4.983-1.277-4.983-.895-3.322c-2.3-8.56-5.622-12.777-5.622-12.777-2.555-3.705-6.26-6.388-10.477-7.922-4.855-1.788-9.966-.766-9.966-.766-8.05 1.533-12.266 7.027-14.054 9.71.894.256 1.66.511 2.427 1.022 1.022.64 1.917 1.406 2.556 2.3 1.15 1.661 1.533 3.833 1.66 5.878.512 4.472 1.406 8.816 2.556 13.16 2.683-9.072 6.005-13.288 6.005-13.288.384-.511.767-.894 1.278-1.15.256-.128.511-.256.894-.256.511 0 1.15.128 1.534.384.127 0 .127.127.255.127.383.384.767.767 1.15 1.278.639 1.278 1.278 2.428 1.789 3.833 1.022 2.811 1.916 6.389 1.916 6.389l2.556 10.221c1.916 7.028 3.45 10.35 3.45 10.35 3.96 9.071 9.966 11.627 9.966 11.627a22.8 22.8 0 0 0 9.582 2.555c3.194.128 6.389-.511 9.2-1.917 3.066-1.533 5.877-3.833 8.05-6.516 1.405-1.66 3.577-5.75 3.577-5.75 2.427-4.727 4.216-9.71 5.494-14.82.894-3.195 1.533-6.39 2.044-9.711.256-1.661.511-3.194.639-4.855.255-1.534.255-3.067-.128-4.6-.128-.256-.128-.511-.255-.767-.767-1.916-2.172-3.45-3.961-4.472-1.278-.894-2.811-1.277-4.344-1.277"/>
  <path fill="url(#F)" d="M86.134 27.746c-.767 0-1.534.127-2.172.255a45 45 0 0 1 4.216 7.666 9.2 9.2 0 0 1 .766 3.706c0 1.15-.255 2.3-.638 3.45-.511 1.022-1.15 2.044-1.917 2.938s-1.789 1.533-2.939 1.917c-1.022.383-2.3.639-3.45.639-1.533 0-3.194-.384-4.471-1.278l-.895 3.45c-1.66 5.622-2.81 7.666-2.81 7.666-.64 1.533-1.406 2.939-2.3 4.344-.64.894-1.406 1.789-2.428 2.172-.383.128-.767.128-1.15.128q-.575 0-1.15-.384a6.5 6.5 0 0 1-1.66-2.044c-.512-.894-.895-1.789-1.279-2.683-.766-1.917-2.044-6.644-2.044-6.644l-1.278-4.983-1.277-4.983-.895-3.322c-2.3-8.56-5.622-12.777-5.622-12.777-2.555-3.705-6.26-6.388-10.477-7.922-4.855-1.788-9.966-.766-9.966-.766-8.05 1.533-12.266 7.027-14.054 9.71.894.256 1.66.511 2.427 1.022 1.022.64 1.917 1.406 2.556 2.3 1.15 1.661 1.533 3.833 1.66 5.878.512 4.472 1.406 8.816 2.556 13.16 2.683-9.072 6.005-13.288 6.005-13.288.384-.511.767-.894 1.278-1.15.256-.128.511-.256.894-.256.511 0 1.15.128 1.534.384.127 0 .127.127.255.127.383.384.767.767 1.15 1.278.639 1.278 1.278 2.428 1.789 3.833 1.022 2.811 1.916 6.389 1.916 6.389l2.556 10.221c1.916 7.028 3.45 10.35 3.45 10.35 3.96 9.071 9.966 11.627 9.966 11.627a22.8 22.8 0 0 0 9.582 2.555c3.194.128 6.389-.511 9.2-1.917 3.066-1.533 5.877-3.833 8.05-6.516 1.405-1.66 3.577-5.75 3.577-5.75 2.427-4.727 4.216-9.71 5.494-14.82.894-3.195 1.533-6.39 2.044-9.711.256-1.661.511-3.194.639-4.855.255-1.534.255-3.067-.128-4.6-.128-.256-.128-.511-.255-.767-.767-1.916-2.172-3.45-3.961-4.472-1.278-.894-2.811-1.277-4.344-1.277"/>
  <path fill="url(#G)" d="M86.134 27.746c-.767 0-1.534.127-2.172.255a45 45 0 0 1 4.216 7.666 9.2 9.2 0 0 1 .766 3.706c0 1.15-.255 2.3-.638 3.45-.511 1.022-1.15 2.044-1.917 2.938s-1.789 1.533-2.939 1.917c-1.022.383-2.3.639-3.45.639-1.533 0-3.194-.384-4.471-1.278l-.895 3.45c-1.66 5.622-2.81 7.666-2.81 7.666-.64 1.533-1.406 2.939-2.3 4.344-.64.894-1.406 1.789-2.428 2.172-.383.128-.767.128-1.15.128q-.575 0-1.15-.384a6.5 6.5 0 0 1-1.66-2.044c-.512-.894-.895-1.789-1.279-2.683-.766-1.917-2.044-6.644-2.044-6.644l-1.278-4.983-1.277-4.983-.895-3.322c-2.3-8.56-5.622-12.777-5.622-12.777-2.555-3.705-6.26-6.388-10.477-7.922-4.855-1.788-9.966-.766-9.966-.766-8.05 1.533-12.266 7.027-14.054 9.71.894.256 1.66.511 2.427 1.022 1.022.64 1.917 1.406 2.556 2.3 1.15 1.661 1.533 3.833 1.66 5.878.512 4.472 1.406 8.816 2.556 13.16 2.683-9.072 6.005-13.288 6.005-13.288.384-.511.767-.894 1.278-1.15.256-.128.511-.256.894-.256.511 0 1.15.128 1.534.384.127 0 .127.127.255.127.383.384.767.767 1.15 1.278.639 1.278 1.278 2.428 1.789 3.833 1.022 2.811 1.916 6.389 1.916 6.389l2.556 10.221c1.916 7.028 3.45 10.35 3.45 10.35 3.96 9.071 9.966 11.627 9.966 11.627a22.8 22.8 0 0 0 9.582 2.555c3.194.128 6.389-.511 9.2-1.917 3.066-1.533 5.877-3.833 8.05-6.516 1.405-1.66 3.577-5.75 3.577-5.75 2.427-4.727 4.216-9.71 5.494-14.82.894-3.195 1.533-6.39 2.044-9.711.256-1.661.511-3.194.639-4.855.255-1.534.255-3.067-.128-4.6-.128-.256-.128-.511-.255-.767-.767-1.916-2.172-3.45-3.961-4.472-1.278-.894-2.811-1.277-4.344-1.277"/>
  <path fill="url(#H)" d="M86.134 27.746c-.767 0-1.534.127-2.172.255a45 45 0 0 1 4.216 7.666 9.2 9.2 0 0 1 .766 3.706c0 1.15-.255 2.3-.638 3.45-.511 1.022-1.15 2.044-1.917 2.938s-1.789 1.533-2.939 1.917c-1.022.383-2.3.639-3.45.639-1.533 0-3.194-.384-4.471-1.278l-.895 3.45c-1.66 5.622-2.81 7.666-2.81 7.666-.64 1.533-1.406 2.939-2.3 4.344-.64.894-1.406 1.789-2.428 2.172-.383.128-.767.128-1.15.128q-.575 0-1.15-.384a6.5 6.5 0 0 1-1.66-2.044c-.512-.894-.895-1.789-1.279-2.683-.766-1.917-2.044-6.644-2.044-6.644l-1.278-4.983-1.277-4.983-.895-3.322c-2.3-8.56-5.622-12.777-5.622-12.777-2.555-3.705-6.26-6.388-10.477-7.922-4.855-1.788-9.966-.766-9.966-.766-8.05 1.533-12.266 7.027-14.054 9.71.894.256 1.66.511 2.427 1.022 1.022.64 1.917 1.406 2.556 2.3 1.15 1.661 1.533 3.833 1.66 5.878.512 4.472 1.406 8.816 2.556 13.16 2.683-9.072 6.005-13.288 6.005-13.288.384-.511.767-.894 1.278-1.15.256-.128.511-.256.894-.256.511 0 1.15.128 1.534.384.127 0 .127.127.255.127.383.384.767.767 1.15 1.278.639 1.278 1.278 2.428 1.789 3.833 1.022 2.811 1.916 6.389 1.916 6.389l2.556 10.221c1.916 7.028 3.45 10.35 3.45 10.35 3.96 9.071 9.966 11.627 9.966 11.627a22.8 22.8 0 0 0 9.582 2.555c3.194.128 6.389-.511 9.2-1.917 3.066-1.533 5.877-3.833 8.05-6.516 1.405-1.66 3.577-5.75 3.577-5.75 2.427-4.727 4.216-9.71 5.494-14.82.894-3.195 1.533-6.39 2.044-9.711.256-1.661.511-3.194.639-4.855.255-1.534.255-3.067-.128-4.6-.128-.256-.128-.511-.255-.767-.767-1.916-2.172-3.45-3.961-4.472-1.278-.894-2.811-1.277-4.344-1.277"/>
  <path fill="url(#I)" d="M86.134 27.746c-.767 0-1.534.127-2.172.255a45 45 0 0 1 4.216 7.666 9.2 9.2 0 0 1 .766 3.706c0 1.15-.255 2.3-.638 3.45-.511 1.022-1.15 2.044-1.917 2.938s-1.789 1.533-2.939 1.917c-1.022.383-2.3.639-3.45.639-1.533 0-3.194-.384-4.471-1.278l-.895 3.45c-1.66 5.622-2.81 7.666-2.81 7.666-.64 1.533-1.406 2.939-2.3 4.344-.64.894-1.406 1.789-2.428 2.172-.383.128-.767.128-1.15.128q-.575 0-1.15-.384a6.5 6.5 0 0 1-1.66-2.044c-.512-.894-.895-1.789-1.279-2.683-.766-1.917-2.044-6.644-2.044-6.644l-1.278-4.983-1.277-4.983-.895-3.322c-2.3-8.56-5.622-12.777-5.622-12.777-2.555-3.705-6.26-6.388-10.477-7.922-4.855-1.788-9.966-.766-9.966-.766-8.05 1.533-12.266 7.027-14.054 9.71.894.256 1.66.511 2.427 1.022 1.022.64 1.917 1.406 2.556 2.3 1.15 1.661 1.533 3.833 1.66 5.878.512 4.472 1.406 8.816 2.556 13.16 2.683-9.072 6.005-13.288 6.005-13.288.384-.511.767-.894 1.278-1.15.256-.128.511-.256.894-.256.511 0 1.15.128 1.534.384.127 0 .127.127.255.127.383.384.767.767 1.15 1.278.639 1.278 1.278 2.428 1.789 3.833 1.022 2.811 1.916 6.389 1.916 6.389l2.556 10.221c1.916 7.028 3.45 10.35 3.45 10.35 3.96 9.071 9.966 11.627 9.966 11.627a22.8 22.8 0 0 0 9.582 2.555c3.194.128 6.389-.511 9.2-1.917 3.066-1.533 5.877-3.833 8.05-6.516 1.405-1.66 3.577-5.75 3.577-5.75 2.427-4.727 4.216-9.71 5.494-14.82.894-3.195 1.533-6.39 2.044-9.711.256-1.661.511-3.194.639-4.855.255-1.534.255-3.067-.128-4.6-.128-.256-.128-.511-.255-.767-.767-1.916-2.172-3.45-3.961-4.472-1.278-.894-2.811-1.277-4.344-1.277"/>
  <path fill="url(#J)" d="M86.134 27.746c-.767 0-1.534.127-2.172.255a45 45 0 0 1 4.216 7.666 9.2 9.2 0 0 1 .766 3.706c0 1.15-.255 2.3-.638 3.45-.511 1.022-1.15 2.044-1.917 2.938s-1.789 1.533-2.939 1.917c-1.022.383-2.3.639-3.45.639-1.533 0-3.194-.384-4.471-1.278l-.895 3.45c-1.66 5.622-2.81 7.666-2.81 7.666-.64 1.533-1.406 2.939-2.3 4.344-.64.894-1.406 1.789-2.428 2.172-.383.128-.767.128-1.15.128q-.575 0-1.15-.384a6.5 6.5 0 0 1-1.66-2.044c-.512-.894-.895-1.789-1.279-2.683-.766-1.917-2.044-6.644-2.044-6.644l-1.278-4.983-1.277-4.983-.895-3.322c-2.3-8.56-5.622-12.777-5.622-12.777-2.555-3.705-6.26-6.388-10.477-7.922-4.855-1.788-9.966-.766-9.966-.766-8.05 1.533-12.266 7.027-14.054 9.71.894.256 1.66.511 2.427 1.022 1.022.64 1.917 1.406 2.556 2.3 1.15 1.661 1.533 3.833 1.66 5.878.512 4.472 1.406 8.816 2.556 13.16 2.683-9.072 6.005-13.288 6.005-13.288.384-.511.767-.894 1.278-1.15.256-.128.511-.256.894-.256.511 0 1.15.128 1.534.384.127 0 .127.127.255.127.383.384.767.767 1.15 1.278.639 1.278 1.278 2.428 1.789 3.833 1.022 2.811 1.916 6.389 1.916 6.389l2.556 10.221c1.916 7.028 3.45 10.35 3.45 10.35 3.96 9.071 9.966 11.627 9.966 11.627a22.8 22.8 0 0 0 9.582 2.555c3.194.128 6.389-.511 9.2-1.917 3.066-1.533 5.877-3.833 8.05-6.516 1.405-1.66 3.577-5.75 3.577-5.75 2.427-4.727 4.216-9.71 5.494-14.82.894-3.195 1.533-6.39 2.044-9.711.256-1.661.511-3.194.639-4.855.255-1.534.255-3.067-.128-4.6-.128-.256-.128-.511-.255-.767-.767-1.916-2.172-3.45-3.961-4.472-1.278-.894-2.811-1.277-4.344-1.277"/>
  <path fill="url(#K)" d="M86.134 27.746c-.767 0-1.534.127-2.172.255a45 45 0 0 1 4.216 7.666 9.2 9.2 0 0 1 .766 3.706c0 1.15-.255 2.3-.638 3.45-.511 1.022-1.15 2.044-1.917 2.938s-1.789 1.533-2.939 1.917c-1.022.383-2.3.639-3.45.639-1.533 0-3.194-.384-4.471-1.278l-.895 3.45c-1.66 5.622-2.81 7.666-2.81 7.666-.64 1.533-1.406 2.939-2.3 4.344-.64.894-1.406 1.789-2.428 2.172-.383.128-.767.128-1.15.128q-.575 0-1.15-.384a6.5 6.5 0 0 1-1.66-2.044c-.512-.894-.895-1.789-1.279-2.683-.766-1.917-2.044-6.644-2.044-6.644l-1.278-4.983-1.277-4.983-.895-3.322c-2.3-8.56-5.622-12.777-5.622-12.777-2.555-3.705-6.26-6.388-10.477-7.922-4.855-1.788-9.966-.766-9.966-.766-8.05 1.533-12.266 7.027-14.054 9.71.894.256 1.66.511 2.427 1.022 1.022.64 1.917 1.406 2.556 2.3 1.15 1.661 1.533 3.833 1.66 5.878.512 4.472 1.406 8.816 2.556 13.16 2.683-9.072 6.005-13.288 6.005-13.288.384-.511.767-.894 1.278-1.15.256-.128.511-.256.894-.256.511 0 1.15.128 1.534.384.127 0 .127.127.255.127.383.384.767.767 1.15 1.278.639 1.278 1.278 2.428 1.789 3.833 1.022 2.811 1.916 6.389 1.916 6.389l2.556 10.221c1.916 7.028 3.45 10.35 3.45 10.35 3.96 9.071 9.966 11.627 9.966 11.627a22.8 22.8 0 0 0 9.582 2.555c3.194.128 6.389-.511 9.2-1.917 3.066-1.533 5.877-3.833 8.05-6.516 1.405-1.66 3.577-5.75 3.577-5.75 2.427-4.727 4.216-9.71 5.494-14.82.894-3.195 1.533-6.39 2.044-9.711.256-1.661.511-3.194.639-4.855.255-1.534.255-3.067-.128-4.6-.128-.256-.128-.511-.255-.767-.767-1.916-2.172-3.45-3.961-4.472-1.278-.894-2.811-1.277-4.344-1.277"/>
</svg>
