<svg width="100" height="100" fill="none" viewBox="0 0 100 100" xmlns="http://www.w3.org/2000/svg">
  <path fill="#4087fc" d="M5 35.857c0-10.8 0-16.201 2.102-20.327a19.3 19.3 0 0 1 8.428-8.428C19.656 5 25.056 5 35.857 5h28.286c10.8 0 16.201 0 20.327 2.102a19.3 19.3 0 0 1 8.428 8.428C95 19.656 95 25.056 95 35.857v28.286c0 10.8 0 16.201-2.102 20.327a19.3 19.3 0 0 1-8.428 8.428C80.344 95 74.944 95 64.143 95H35.857c-10.8 0-16.201 0-20.327-2.102a19.3 19.3 0 0 1-8.428-8.428C5 80.344 5 74.944 5 64.143z"/>
  <path fill="#fff" d="M25.143 30.714c-2.249 0-4.072 2.056-4.072 4.592v22.27c0 6.467 4.649 11.71 10.383 11.71l24.117-.23c2.249 0 4.072-2.056 4.072-4.592v-22.5c0-6.466-5.516-11.25-11.25-11.25zm40.003 8.768c-1.455 1.438-2.289 3.514-2.289 5.697v9.319c0 2.182.834 4.258 2.29 5.697l9.053 7.974c1.842 1.821 4.729.346 4.729-2.417V34.363c0-2.763-2.887-4.238-4.73-2.417z"/>
</svg>
