<svg width="80" height="80" viewBox="0 0 80 80" fill="none" xmlns="http://www.w3.org/2000/svg">
<g clip-path="url(#clip0_5019_12759)">
<path d="M17.1338 50.3931C17.1338 54.9915 13.4173 58.708 8.81887 58.708C4.22044 58.708 0.503906 54.9915 0.503906 50.3931C0.503906 45.7947 4.22044 42.0781 8.81887 42.0781H17.1338V50.3931ZM21.2913 50.3931C21.2913 45.7947 25.0078 42.0781 29.6063 42.0781C34.2047 42.0781 37.9212 45.7947 37.9212 50.3931V71.1805C37.9212 75.7789 34.2047 79.4954 29.6063 79.4954C25.0078 79.4954 21.2913 75.7789 21.2913 71.1805V50.3931Z" fill="#1313BA"/>
<path d="M29.6063 17.0088C25.0078 17.0088 21.2913 13.2923 21.2913 8.69387C21.2913 4.09544 25.0078 0.378906 29.6063 0.378906C34.2047 0.378906 37.9212 4.09544 37.9212 8.69387V17.0088H29.6063ZM29.6063 21.2293C34.2047 21.2293 37.9212 24.9458 37.9212 29.5443C37.9212 34.1427 34.2047 37.8592 29.6063 37.8592H8.75588C4.15745 37.8592 0.440918 34.1427 0.440918 29.5443C0.440918 24.9458 4.15745 21.2293 8.75588 21.2293H29.6063Z" fill="#1313BA" fill-opacity="0.658824"/>
<path d="M62.929 29.5443C62.929 24.9458 66.6455 21.2293 71.244 21.2293C75.8424 21.2293 79.5589 24.9458 79.5589 29.5443C79.5589 34.1427 75.8424 37.8592 71.244 37.8592H62.929V29.5443ZM58.7715 29.5443C58.7715 34.1427 55.055 37.8592 50.4566 37.8592C45.8581 37.8592 42.1416 34.1427 42.1416 29.5443V8.69387C42.1416 4.09544 45.8581 0.378906 50.4566 0.378906C55.055 0.378906 58.7715 4.09544 58.7715 8.69387V29.5443Z" fill="#1313BA"/>
<path d="M50.4566 62.8655C55.055 62.8655 58.7715 66.5821 58.7715 71.1805C58.7715 75.7789 55.055 79.4954 50.4566 79.4954C45.8581 79.4954 42.1416 75.7789 42.1416 71.1805V62.8655H50.4566ZM50.4566 58.708C45.8581 58.708 42.1416 54.9915 42.1416 50.3931C42.1416 45.7947 45.8581 42.0781 50.4566 42.0781H71.307C75.9054 42.0781 79.6219 45.7947 79.6219 50.3931C79.6219 54.9915 75.9054 58.708 71.307 58.708H50.4566Z" fill="#1313BA" fill-opacity="0.658824"/>
</g>
<defs>
<clipPath id="clip0_5019_12759">
<rect width="80" height="80" fill="white"/>
</clipPath>
</defs>
</svg>
