<svg width="80" height="80" viewBox="0 0 80 80" fill="none" xmlns="http://www.w3.org/2000/svg">
<path fill-rule="evenodd" clip-rule="evenodd" d="M79.9999 40.5332C79.9999 34.8444 77.2443 30.3555 71.9777 30.3555C66.6888 30.3555 63.4888 34.8444 63.4888 40.4888C63.4888 47.1777 67.2665 50.5554 72.6888 50.5554C75.3332 50.5554 77.3332 49.9554 78.8443 49.111V44.6666C77.3332 45.4221 75.5999 45.8888 73.3999 45.8888C71.2443 45.8888 69.3332 45.1332 69.0888 42.511H79.9554C79.9554 42.2221 79.9999 41.0666 79.9999 40.5332ZM69.0221 38.4221C69.0221 35.911 70.5554 34.8666 71.9554 34.8666C73.311 34.8666 74.7554 35.911 74.7554 38.4221H69.0221Z" fill="#1313BA"/>
<path fill-rule="evenodd" clip-rule="evenodd" d="M54.9113 30.3555C52.7335 30.3555 51.3335 31.3777 50.5557 32.0888L50.2668 30.711H45.3779V56.6221L50.9335 55.4443L50.9557 49.1554C51.7557 49.7332 52.9335 50.5554 54.889 50.5554C58.8668 50.5554 62.489 47.3554 62.489 40.311C62.4668 33.8666 58.8002 30.3555 54.9113 30.3555ZM53.5779 45.6666C52.2668 45.6666 51.489 45.1999 50.9557 44.6221L50.9335 36.3777C51.5113 35.7332 52.3113 35.2888 53.5779 35.2888C55.6002 35.2888 57.0002 37.5555 57.0002 40.4666C57.0002 43.4444 55.6224 45.6666 53.5779 45.6666Z" fill="#1313BA"/>
<path fill-rule="evenodd" clip-rule="evenodd" d="M37.7334 29.0451L43.3112 27.8451V23.334L37.7334 24.5118V29.0451Z" fill="#1313BA"/>
<path d="M43.3112 30.7324H37.7334V50.1769H43.3112V30.7324Z" fill="#1313BA"/>
<path fill-rule="evenodd" clip-rule="evenodd" d="M31.7557 32.3781L31.4001 30.7336H26.6001V50.1781H32.1557V37.0003C33.4668 35.2892 35.689 35.6003 36.3779 35.8447V30.7336C35.6668 30.4669 33.0668 29.9781 31.7557 32.3781Z" fill="#1313BA"/>
<path fill-rule="evenodd" clip-rule="evenodd" d="M20.6446 25.9102L15.2224 27.0657L15.2002 44.8657C15.2002 48.1546 17.6669 50.5768 20.9557 50.5768C22.778 50.5768 24.1113 50.2435 24.8447 49.8435V45.3324C24.1336 45.6212 20.6224 46.6435 20.6224 43.3546V35.4657H24.8447V30.7324H20.6224L20.6446 25.9102Z" fill="#1313BA"/>
<path fill-rule="evenodd" clip-rule="evenodd" d="M5.62222 36.3777C5.62222 35.511 6.33333 35.1777 7.51111 35.1777C9.2 35.1777 11.3333 35.6888 13.0222 36.5999V31.3777C11.1778 30.6444 9.35555 30.3555 7.51111 30.3555C3 30.3555 0 32.711 0 36.6444C0 42.7777 8.44444 41.7999 8.44444 44.4444C8.44444 45.4666 7.55555 45.7999 6.31111 45.7999C4.46667 45.7999 2.11111 45.0444 0.244444 44.0221V49.311C2.31111 50.1999 4.4 50.5777 6.31111 50.5777C10.9333 50.5777 14.1111 48.2888 14.1111 44.311C14.0889 37.6888 5.62222 38.8666 5.62222 36.3777Z" fill="#1313BA"/>
</svg>
