<svg width="80" height="80" viewBox="0 0 80 80" fill="none" xmlns="http://www.w3.org/2000/svg">
<path d="M37.257 27.3241V67.208H4L37.257 27.3241ZM37.257 13.0117C37.257 17.3924 35.5051 21.5938 32.3867 24.6914C29.2682 27.789 25.0387 29.5293 20.6285 29.5293C16.2184 29.5293 11.9888 27.789 8.87038 24.6914C5.75193 21.5938 4 17.3924 4 13.0117L37.257 13.0117ZM42.7358 67.2115C42.7358 62.8308 44.4878 58.6295 47.6062 55.5318C50.7247 52.4342 54.9542 50.694 59.3644 50.694C63.7745 50.694 68.004 52.4342 71.1225 55.5318C74.241 58.6295 75.9929 62.8308 75.9929 67.2115H42.7358ZM42.7358 52.8991V13.0117H76L42.7358 52.8956V52.8991Z" fill="#1313BA"/>
</svg>
