<svg width="80" height="80" viewBox="0 0 80 80" fill="none" xmlns="http://www.w3.org/2000/svg">
<path d="M57.5029 57.539V77.9702C57.5029 79.0444 56.6404 79.9121 55.5662 79.9121H1.93673C0.867657 79.9121 0 79.0444 0 77.9702V24.3098C0 23.2407 0.867657 22.373 1.93673 22.373H22.3008V55.6022C22.3008 56.6713 23.1685 57.539 24.2376 57.539H57.5029Z" fill="#1313BA" fill-opacity="0.658824"/>
<path d="M79.8452 28.7309C79.8452 45.8981 69.831 57.4979 57.503 57.5392V35.9097C57.503 35.29 57.2551 34.6702 56.8058 34.2622L45.5934 23.0343C45.1389 22.5798 44.5605 22.3319 43.9407 22.3319H22.3423V1.94201C22.3423 0.867767 23.2099 0.000110408 24.279 0.000110408H54.4972C68.8394 -0.0412066 79.8452 11.5172 79.8452 28.7309Z" fill="#CBCBEF"/>
<path d="M56.8058 34.221C57.2551 34.6703 57.503 35.2488 57.503 35.8685V57.4979H24.279C23.2099 57.4979 22.3423 56.6303 22.3423 55.5612V22.332H43.9407C44.5605 22.332 45.1802 22.5799 45.5934 23.0344L56.8058 34.221Z" fill="#1313BA"/>
</svg>
