<svg width="134" height="86" viewBox="0 0 134 86" fill="none" xmlns="http://www.w3.org/2000/svg">
<path d="M48.5 17.5V19.5H50.5V21.5H52.5V64.5H50.5V66.5H48.5V68.5H5.5V66.5H3.5V64.5H1.5V21.5H3.5V19.5H5.5V17.5H48.5Z" fill="#1313BA" stroke="#F6F6FC" stroke-width="3"/>
<path d="M35 52.5215H33V55.5215H31V52.5215H28V55.5215H26V52.5215H23V55.5215H21V52.5215H19V50.5215H35V52.5215Z" fill="#CBCBEF"/>
<path d="M19 50.5215H17V48.5215H14V46.5215H17V43.5215H14V41.5215H17V38.5215H14V36.5215H17V34.5215H19V50.5215Z" fill="#CBCBEF"/>
<path d="M37 36.5215H40V38.5215H37V41.5215H40V43.5215H37V46.5215H40V48.5215H37V50.5215H35V34.5215H37V36.5215Z" fill="#CBCBEF"/>
<path fill-rule="evenodd" clip-rule="evenodd" d="M32 47.5215H22V37.5215H32V47.5215ZM24 45.5215H30V39.5215H24V45.5215Z" fill="#CBCBEF"/>
<path d="M23 32.5215H26V29.5215H28V32.5215H31V29.5215H33V32.5215H35V34.5215H19V32.5215H21V29.5215H23V32.5215Z" fill="#CBCBEF"/>
<path d="M102.023 1.5V3.02344H110.404V6.07129H115.738V9.11914H118.786V12.167H121.833V15.2139H124.881V18.2617H127.929V23.5957H130.977V31.9766H132.5V54.0234H130.977V62.4043H127.929V67.7383H124.881V70.7861H121.833V73.833H118.786V76.8809H115.738V79.9287H110.404V82.9766H102.023V84.5H79.9766V82.9766H71.5957V79.9287H66.2617V76.8809H63.2139V73.833H60.167V70.7861H57.1191V67.7383H54.0713V62.4043H51.0234V54.0234H49.5V31.9766H51.0234V23.5957H54.0713V18.2617H57.1191V15.2139H60.167V12.167H63.2139V9.11914H66.2617V6.07129H71.5957V3.02344H79.9766V1.5H102.023Z" fill="#CBCBEF" stroke="#F6F6FC" stroke-width="3"/>
<path d="M102.486 26V28.6221H79.2959V31.1426H102.488V28.5215H105.585V31.1426H108.684V56.8574H105.588L105.587 33.7646H82.3945V56.8574H105.585V59.4785H79.1973V56.8574H76.0986V54.3359H73V28.5215H76.0986V26H102.486Z" fill="#1313BA"/>
<path d="M91.6904 38.8066H93.1895V41.4287H94.7891V43.9502H96.2891V46.5713H97.8887V49.0928H99.3896V38.9072H97.79V36.2861H104.086V38.9072H102.486V54.3359H97.79V51.7139H94.6914V49.1934H93.1924V46.5713L93.1895 46.5635V46.5713H91.5928V44.0498H90.0908V51.7139H91.6904V54.3359H85.3955V51.7139H86.9951L86.9941 38.9072H85.3955V36.2861H91.6904V38.8066Z" fill="#1313BA"/>
</svg>
