<svg width="47" height="24" viewBox="0 0 47 24" fill="none" xmlns="http://www.w3.org/2000/svg">
<path d="M42.0535 18.1447C41.4135 18.1447 40.8387 18.0209 40.3294 17.7734C39.8329 17.5259 39.4346 17.1937 39.1341 16.7769C38.8468 16.3471 38.7031 15.852 38.7031 15.2919C38.7031 14.5625 38.9383 13.9699 39.4084 13.5139C39.8787 13.058 40.5514 12.7454 41.4265 12.5761L43.7189 12.1071C44.176 12.0159 44.4897 11.8726 44.6594 11.6772C44.8292 11.4818 44.9141 11.1953 44.9141 10.8176L45.1493 13.1036L41.8576 13.807C41.4135 13.8981 41.0673 14.061 40.8192 14.2954C40.584 14.53 40.4665 14.8556 40.4665 15.2724C40.4665 15.7023 40.6297 16.0474 40.9563 16.308C41.2959 16.5685 41.7531 16.6988 42.3278 16.6988C42.7981 16.6988 43.2291 16.5946 43.6209 16.3861C44.0259 16.1777 44.3394 15.8911 44.5615 15.5265C44.7965 15.1487 44.9141 14.7189 44.9141 14.2368V10.8176C44.9141 10.3486 44.7443 9.98393 44.4047 9.72333C44.0782 9.44983 43.6275 9.31302 43.0528 9.31302C42.3213 9.31302 41.7596 9.49539 41.3678 9.86014C40.9759 10.2249 40.7474 10.7393 40.682 11.4037L38.9578 11.1693C39.0231 10.4789 39.2321 9.88618 39.5848 9.39125C39.9374 8.88318 40.4077 8.4924 40.9955 8.2189C41.5833 7.94529 42.2821 7.80859 43.0919 7.80859C44.2414 7.80859 45.1231 8.10162 45.737 8.68779C46.3509 9.27397 46.6579 10.0295 46.6579 10.9543V17.8515H44.9533V16.5815C44.7835 17.0114 44.4373 17.3826 43.9149 17.6953C43.4054 17.9948 42.7849 18.1447 42.0535 18.1447Z" fill="#1313BA"/>
<path d="M24.8076 17.8515V8.10162H26.5122V9.19586C26.6427 8.81809 26.9302 8.4924 27.3743 8.2189C27.8183 7.94529 28.3343 7.80859 28.9221 7.80859C29.4969 7.80859 30.0259 7.93227 30.5092 8.17973C30.9925 8.42731 31.306 8.79857 31.4496 9.29349C31.6194 8.83762 31.9329 8.47939 32.3901 8.2189C32.8604 7.94529 33.3828 7.80859 33.9575 7.80859C34.9503 7.80859 35.7079 8.09511 36.2304 8.66827C36.7528 9.24142 37.014 10.0751 37.014 11.1693V17.8515H35.2703V11.4037C35.2703 10.7524 35.1266 10.2639 34.8393 9.93825C34.565 9.59966 34.16 9.4303 33.6245 9.4303C33.0367 9.4303 32.5795 9.63871 32.2529 10.0555C31.9394 10.4593 31.7828 11.052 31.7828 11.8336V17.8515H30.0389V11.4037C30.0389 10.7524 29.8952 10.2639 29.6079 9.93825C29.3336 9.59966 28.9286 9.4303 28.3931 9.4303C27.8053 9.4303 27.3482 9.63871 27.0215 10.0555C26.7081 10.4593 26.5514 11.052 26.5514 11.8336V17.8515H24.8076Z" fill="#1313BA"/>
<path d="M18.1386 21.3686C16.9238 21.3686 15.9376 21.0885 15.1799 20.5284C14.4223 19.9683 13.9391 19.1867 13.7302 18.1837L15.4347 17.8125C15.5784 18.4507 15.8854 18.9458 16.3555 19.2975C16.8258 19.6622 17.4201 19.8446 18.1386 19.8446C19.0006 19.8446 19.6472 19.6231 20.0782 19.1802C20.5223 18.7504 20.7445 18.1056 20.7445 17.2458V15.7023C20.5485 16.1842 20.1827 16.575 19.6472 16.8746C19.1247 17.1742 18.5369 17.324 17.8838 17.324C17.0217 17.324 16.2642 17.1287 15.6111 16.7379C14.9579 16.3341 14.4485 15.7739 14.0828 15.0575C13.717 14.3411 13.5342 13.5139 13.5342 12.5761C13.5342 11.6252 13.717 10.7915 14.0828 10.0751C14.4485 9.35859 14.9514 8.80508 15.5914 8.41429C16.2445 8.01049 17.0087 7.80859 17.8838 7.80859C18.5369 7.80859 19.1312 7.9583 19.6669 8.25796C20.2154 8.54448 20.5877 8.90271 20.7836 9.33255V8.10162H22.4882V17.2458C22.4882 18.1056 22.3184 18.8415 21.9788 19.4538C21.6391 20.079 21.1428 20.5544 20.4897 20.8801C19.8497 21.2057 19.0659 21.3686 18.1386 21.3686ZM18.0993 15.7804C18.9354 15.7804 19.6015 15.4873 20.0978 14.9011C20.6073 14.315 20.862 13.54 20.862 12.5761C20.862 11.5991 20.6073 10.8176 20.0978 10.2314C19.5884 9.64522 18.9222 9.35208 18.0993 9.35208C17.2633 9.35208 16.5907 9.64522 16.0812 10.2314C15.5849 10.8176 15.3367 11.5991 15.3367 12.5761C15.3367 13.54 15.5914 14.315 16.1009 14.9011C16.6103 15.4873 17.2765 15.7804 18.0993 15.7804Z" fill="#1313BA"/>
<path d="M10.0205 17.8494V8.11092H11.7644V17.8608L10.0205 17.8494ZM10.001 6.86046V4.08594H11.7839V6.86046H10.001Z" fill="#1313BA"/>
<path d="M0 17.8608V4.08594H1.84174V17.8608H0ZM0.372297 12.0383V10.3774H7.87642V12.0383H0.372297ZM0.372297 5.76623V4.08594H8.60138V5.76623H0.372297Z" fill="#1313BA"/>
</svg>
