<svg width="75" height="24" fill="none" viewBox="0 0 75 24" xmlns="http://www.w3.org/2000/svg">
  <defs>
    <clipPath id="clip0_5469_9356">
      <path fill="#fff" d="M0 0h74v23.485H0z"/>
    </clipPath>
  </defs>
  <g clip-path="url(#clip0_5469_9356)">
    <mask id="mask0_5469_9356" width="75" height="24" x="0" y="0" maskUnits="userSpaceOnUse" style="mask-type:luminance">
      <path fill="#fff" d="M74.001 0h-74v23.485h74z"/>
    </mask>
    <g mask="url(#mask0_5469_9356)">
      <path fill="#1313BA" d="M48.995 16.803h2.015v1.266a2.4 2.4 0 0 1-1.87.767 2.72 2.72 0 0 1-2.567-3.771 2.72 2.72 0 0 1 2.566-1.663 2.36 2.36 0 0 1 1.754.693l.037.034.65-.658-.032-.034a3.23 3.23 0 0 0-2.469-.976 3.66 3.66 0 0 0 0 7.316 3.5 3.5 0 0 0 2.864-1.334l.01-.015v-2.563h-2.954v.938z"/>
    </g>
    <mask id="mask1_5469_9356" width="75" height="24" x="0" y="0" maskUnits="userSpaceOnUse" style="mask-type:luminance">
      <path fill="#fff" d="M74.001 0h-74v23.485h74z"/>
    </mask>
    <g mask="url(#mask1_5469_9356)">
      <path fill="#1313BA" d="M55.152 14.148a1.7 1.7 0 0 0-1.19.556v-.313h-.94v5.134h.94v-3.127c0-.807.448-1.302.937-1.302a.9.9 0 0 1 .72.276l.048.042.509-.944-.034-.027a1.48 1.48 0 0 0-.989-.295"/>
    </g>
    <mask id="mask2_5469_9356" width="75" height="24" x="0" y="0" maskUnits="userSpaceOnUse" style="mask-type:luminance">
      <path fill="#fff" d="M74.001 0h-74v23.485h74z"/>
    </mask>
    <g mask="url(#mask2_5469_9356)">
      <path fill="#1313BA" d="M58.937 14.14a2.819 2.819 0 1 0 0 5.638 2.819 2.819 0 0 0 0-5.637m0 4.697a1.878 1.878 0 1 1 0-3.756 1.878 1.878 0 0 1 0 3.756"/>
    </g>
    <mask id="mask3_5469_9356" width="75" height="24" x="0" y="0" maskUnits="userSpaceOnUse" style="mask-type:luminance">
      <path fill="#fff" d="M74.001 0h-74v23.485h74z"/>
    </mask>
    <g mask="url(#mask3_5469_9356)">
      <path fill="#1313BA" d="M66.265 17.447a1.405 1.405 0 0 1-1.505 1.386c-.919 0-1.348-.494-1.348-1.552v-2.886h-.943v2.838c0 1.71.755 2.541 2.307 2.541a2.44 2.44 0 0 0 1.488-.574v.33h.94v-5.135h-.939z"/>
    </g>
    <mask id="mask4_5469_9356" width="75" height="24" x="0" y="0" maskUnits="userSpaceOnUse" style="mask-type:luminance">
      <path fill="#fff" d="M74.001 0h-74v23.485h74z"/>
    </mask>
    <g mask="url(#mask4_5469_9356)">
      <path fill="#1313BA" d="M70.744 14.141a2.27 2.27 0 0 0-1.609.616v-.365h-.939v7.316h.942v-2.51a2.74 2.74 0 0 0 1.6.57c1.538 0 2.614-1.147 2.614-2.79-.002-1.618-1.122-2.837-2.608-2.837m1.664 2.809c0 1.291-.855 1.88-1.646 1.88-.383 0-1.627-.136-1.627-1.88 0-1.17.609-1.87 1.627-1.87 1.138 0 1.646 1.092 1.646 1.87"/>
    </g>
    <mask id="mask5_5469_9356" width="75" height="24" x="0" y="0" maskUnits="userSpaceOnUse" style="mask-type:luminance">
      <path fill="#fff" d="M74.001 0h-74v23.485h74z"/>
    </mask>
    <g mask="url(#mask5_5469_9356)">
      <path fill="#1313BA" d="M52.669 3.832h-.917L49.74 9.174l-2.006-5.31-.01-.032h-.919l-1.259 6.765-.01.06h.961l.936-4.908 1.84 4.873.013.034h.912l1.847-4.908.944 4.908h.953z"/>
    </g>
    <mask id="mask6_5469_9356" width="75" height="24" x="0" y="0" maskUnits="userSpaceOnUse" style="mask-type:luminance">
      <path fill="#fff" d="M74.001 0h-74v23.485h74z"/>
    </mask>
    <g mask="url(#mask6_5469_9356)">
      <path fill="#1313BA" d="M56.824 7.316c-1.094 0-2.198.547-2.198 1.778 0 1.068.855 1.816 2.076 1.816a2.35 2.35 0 0 0 1.761-.812v.561h.941v-2.06c0-1.032-.076-1.84-.456-2.418-.403-.619-1.076-.92-2.06-.92a3.46 3.46 0 0 0-1.964.637l-.034.027.464.76.045-.034a2.6 2.6 0 0 1 1.573-.475c.815 0 1.29.425 1.408 1.266l-.084-.012a10 10 0 0 0-1.473-.112m-.122.943q.878.006 1.751.103c-.02.963-.722 1.608-1.76 1.608-.696 0-1.115-.348-1.125-.93.01-.578.618-.782 1.134-.782"/>
    </g>
    <mask id="mask7_5469_9356" width="75" height="24" x="0" y="0" maskUnits="userSpaceOnUse" style="mask-type:luminance">
      <path fill="#fff" d="M74.001 0h-74v23.485h74z"/>
    </mask>
    <g mask="url(#mask7_5469_9356)">
      <path fill="#1313BA" d="M62.608 9.783c-.376.117-.618.125-.755.025a.56.56 0 0 1-.159-.469V6.46h1.029v-.945h-1.029V3.832h-.94v1.681h-.674v.942h.673v2.9a1.57 1.57 0 0 0 .579 1.369c.197.126.427.19.66.186a2.2 2.2 0 0 0 .837-.191l.04-.018-.209-.936z"/>
    </g>
    <mask id="mask8_5469_9356" width="75" height="24" x="0" y="0" maskUnits="userSpaceOnUse" style="mask-type:luminance">
      <path fill="#fff" d="M74.001 0h-74v23.485h74z"/>
    </mask>
    <g mask="url(#mask8_5469_9356)">
      <path fill="#1313BA" d="M66.264 6.205a1.6 1.6 0 0 1 1.351.687l.027.038.785-.492-.03-.045A2.46 2.46 0 0 0 66.21 5.26a2.824 2.824 0 1 0 0 5.648 2.47 2.47 0 0 0 2.189-1.132l.03-.045-.786-.492-.027.037a1.6 1.6 0 0 1-1.351.688 1.92 1.92 0 0 1-1.947-1.881 1.87 1.87 0 0 1 1.947-1.878"/>
    </g>
    <mask id="mask9_5469_9356" width="75" height="24" x="0" y="0" maskUnits="userSpaceOnUse" style="mask-type:luminance">
      <path fill="#fff" d="M74.001 0h-74v23.485h74z"/>
    </mask>
    <g mask="url(#mask9_5469_9356)">
      <path fill="#1313BA" d="M70.228 7.85c0-1.132.72-1.639 1.433-1.639.938 0 1.34.517 1.34 1.724v2.722h.942V7.982c0-1.85-.708-2.712-2.225-2.712a2.23 2.23 0 0 0-1.49.563V3.832h-.942v6.825h.942z"/>
    </g>
    <mask id="mask10_5469_9356" width="4" height="3" x="0" y="17" maskUnits="userSpaceOnUse" style="mask-type:luminance">
      <path fill="#fff" d="m.068 17.604-.008.03a1.524 1.524 0 0 0 2.96.722l.008-.03.013-.052-2.956-.739z"/>
    </mask>
    <g mask="url(#mask10_5469_9356)">
      <mask id="mask11_5469_9356" width="5" height="3" x="-1" y="17" maskUnits="userSpaceOnUse" style="mask-type:luminance">
        <path fill="#fff" d="M3.043 17.535H-.13v2.129h3.172z"/>
      </mask>
      <g mask="url(#mask11_5469_9356)">
        <path fill="#1313BA" d="M3.051 17.535H-.132v2.134h3.183z"/>
      </g>
    </g>
    <mask id="mask12_5469_9356" width="40" height="24" x="0" y="0" maskUnits="userSpaceOnUse" style="mask-type:luminance">
      <path fill="#fff" d="M27.983 16.489q.422-.048.84-.115.417-.069.832-.161.411-.093.82-.205a16 16 0 0 0 2.362-.877q.38-.175.748-.37a21 21 0 0 0 1.428-.827l.342-.224.186-.124-.141.365c-.023.068-.085.194-.132.295-.047.102-.1.214-.147.321-.106.211-.22.417-.332.626-.127.201-.244.407-.377.606-.139.194-.263.397-.412.584s-.285.382-.444.558-.308.363-.477.532c-.082.087-.164.17-.246.258l-.258.24c-.17.166-.353.313-.532.464s-.372.28-.556.425q-.286.195-.577.376c-.198.103-.392.234-.593.318l-.3.141-.304.115a4.8 4.8 0 0 1-1.415.308 2.55 2.55 0 0 1-1.754-.562 4.16 4.16 0 0 1-1.197-1.79v-.003a6 6 0 0 1-.323-1.239q.192.016.382.027l.445.02.447.008h.052q.818-.002 1.632-.09m2.933-15.435c-.818.377-1.589.85-2.295 1.41a17.7 17.7 0 0 0-3.476 3.722 19.4 19.4 0 0 0-2.347 4.47q-.355.958-.578 1.957l-.132-.069-.417-.253-.4-.281a24 24 0 0 0-.383-.306l-.36-.33q-.168-.178-.338-.355c-.111-.119-.208-.25-.315-.376-.065-.075-.114-.157-.174-.234l-.087-.12q-.044-.058-.084-.116l-.092-.149c-.226-.435-.465-.855-.684-1.3q-.262-.33-.524-.665l-.065-.082-.032-.042c-.012-.015-.022-.028-.03-.028l-.111-.047-.224-.094-.27-.115h-.003a1.7 1.7 0 0 0-.982.104 2 2 0 0 0-.634.44q-.346.367-.6.802c-.19.308-.37.639-.548.971l-.43.818-.26.494c-.174.328-.345.65-.522.966l-.268.47-.27.459c-.184.3-.37.596-.564.876s-.392.547-.596.792q-.154.184-.308.35a6 6 0 0 1-.22.222l-.028-.025-.05-.042c-.032-.025-.068-.072-.107-.103a1.4 1.4 0 0 1-.111-.126c-.038-.042-.075-.095-.115-.147a6 6 0 0 1-.655-1.193q-.291-.691-.48-1.418a12 12 0 0 1-.297-1.51l-.015-.097-.008-.047-.01-.095-.034-.376q-.02-.19-.034-.376c-.01-.132-.01-.293-.015-.44-.005-.146-.008-.3-.01-.449l-.005-.224c-.003-.074.01-.164.012-.246l.06-.992.015-.156-.037-.516-.02-.259q-.006-.064-.01-.129c-.003-.042-.022-.047-.032-.074l-.14-.264-.068-.131a.5.5 0 0 0-.068-.112c-.087-.09-.177-.19-.259-.268l-.208-.13H8.56l-.074-.037-.103-.045a1.8 1.8 0 0 0-.541-.122 1.4 1.4 0 0 0-.326.015c-.26.04-.507.133-.727.276-.54.325-1.165 1.083-1.751 1.912q-.445.627-.87 1.3-.201.327-.404.653l-.214.355q-.42.713-.814 1.437a40 40 0 0 0-1.463 2.976A22.4 22.4 0 0 0 .12 17.405l-.052.205.74.181.74.182.74.18.741.182c.027-.102.04-.159.04-.159.262-.947.597-1.874 1-2.77a40 40 0 0 1 2.106-4.08l.212-.354.007.057.005.052.028.19q.128.942.37 1.864.246.943.623 1.84a9 9 0 0 0 1.014 1.811q.1.146.218.278c.08.093.152.184.246.276.095.092.171.184.278.274l.157.134.079.068c.027.024.072.05.107.072l.223.15c.038.024.075.052.112.074l.12.06q.12.06.239.116.122.054.25.09c.085.024.17.06.254.076q.13.025.26.043.067.012.133.02c.044.004.086.002.131.002l.264.005c.143-.022.293-.04.437-.069q.214-.055.42-.139c.131-.068.268-.124.394-.2l.365-.257q.005-.002.005-.005l.212-.183c.04-.035.057-.052.079-.073l.062-.06q.127-.12.24-.243.232-.247.439-.496.415-.503.762-1.014.35-.512.661-1.026l.306-.513.29-.513q.288-.514.554-1.023l.266-.507.097-.183.017.024.12.164c.082.11.156.221.243.326.146.176.29.355.442.526.16.166.316.335.477.497q.253.233.51.466l.538.433.567.388.59.358q.31.159.614.318l.634.276.055.02a9.4 9.4 0 0 0 .603 3.04q.18.406.358.814c.151.268.295.536.462.8a6.4 6.4 0 0 0 1.306 1.45c.069.052.132.107.2.16q.097.081.208.146.219.138.442.268.227.123.467.22.235.111.484.182.246.07.497.137c.166.034.333.055.5.08l.25.032c.082.005.164.005.246.01l.492.007a7.9 7.9 0 0 0 2.357-.494l.449-.174q.214-.102.427-.201c.29-.13.552-.293.825-.442q.394-.242.772-.502c.24-.184.497-.353.723-.552.226-.198.467-.385.68-.593l.328-.308c.11-.102.205-.216.31-.323.212-.21.406-.44.6-.665s.372-.465.558-.7c.187-.237.342-.49.517-.733.163-.249.315-.51.472-.763.144-.263.288-.526.422-.795l.19-.41q.108-.216.19-.442.097-.253.19-.51l.098-.253.102-.38a9 9 0 0 0 .348-1.493l.107-.722a.7.7 0 0 0 .01-.17v-.159q0-.158-.003-.317c-.002-.107 0-.211-.002-.318v-.24a.2.2 0 0 0-.02-.056l-.179-.423-.121-.285-.003-.003a1.74 1.74 0 0 0-1.306-.708c-.311-.01-.621.05-.906.177a6.6 6.6 0 0 0-1.197.755c-.415.306-.825.616-1.242.904l-.266.184-.178.12-.296.19q-.297.191-.596.363a20 20 0 0 1-.606.335c-.204.107-.41.205-.616.303a10 10 0 0 1-.628.27q-.316.127-.636.24-.321.113-.646.201-.324.091-.655.167a12 12 0 0 1-1.332.221q-.673.073-1.35.069l-.36-.008q-.18-.007-.361-.018-.18-.011-.36-.027l-.072-.007q.185-.906.509-1.771a16.4 16.4 0 0 1 1.977-3.76 14.7 14.7 0 0 1 2.859-3.075 8.3 8.3 0 0 1 1.664-1.03 4 4 0 0 1 1.599-.39h.002a1.93 1.93 0 0 1 1.833 1.29l.042.108q.723-.242.723-.24l.723-.24c.24-.077.482-.16.722-.239l.723-.24-.09-.239A4.975 4.975 0 0 0 33.827.395h-.062a6.95 6.95 0 0 0-2.85.658"/>
    </mask>
    <g mask="url(#mask12_5469_9356)">
      <mask id="mask13_5469_9356" width="40" height="24" x="0" y="0" maskUnits="userSpaceOnUse" style="mask-type:luminance">
        <path fill="#fff" d="M39.095.398H.067v22.763h39.028z"/>
      </mask>
      <g mask="url(#mask13_5469_9356)">
        <path fill="#1313BA" d="M39.101.395H.06v22.77H39.1z"/>
      </g>
    </g>
    <mask id="mask14_5469_9356" width="4" height="3" x="35" y="3" maskUnits="userSpaceOnUse" style="mask-type:luminance">
      <path fill="#fff" d="m35.626 4.806.015.034.042.112a1.523 1.523 0 0 0 2.851-1.076l-.03-.08z"/>
    </mask>
    <g mask="url(#mask14_5469_9356)">
      <mask id="mask15_5469_9356" width="4" height="4" x="35" y="3" maskUnits="userSpaceOnUse" style="mask-type:luminance">
        <path fill="#fff" d="M38.793 3.8h-3.167v2.328h3.166z"/>
      </mask>
      <g mask="url(#mask15_5469_9356)">
        <path fill="#1313BA" d="M38.792 3.793h-3.17V6.13h3.17z"/>
      </g>
    </g>
    <mask id="mask16_5469_9356" width="75" height="24" x="0" y="0" maskUnits="userSpaceOnUse" style="mask-type:luminance">
      <path fill="#fff" d="M74.001 0h-74v23.485h74z"/>
    </mask>
    <g mask="url(#mask16_5469_9356)">
      <path fill="#1313BA" d="M19.071 4.658c-.087 1.014-.765 1.823-1.756 1.798-.99-.025-1.528-.859-1.44-1.872.086-1.014.804-2.225 1.795-2.2s1.49 1.26 1.402 2.274"/>
    </g>
    <mask id="mask17_5469_9356" width="75" height="24" x="0" y="0" maskUnits="userSpaceOnUse" style="mask-type:luminance">
      <path fill="#fff" d="M74.001 0h-74v23.485h74z"/>
    </mask>
    <g mask="url(#mask17_5469_9356)">
      <path fill="#1313BA" d="M9.99 2.303C9.905 3.316 9.227 4.126 8.236 4.1s-1.528-.86-1.44-1.873C6.88 1.215 7.598.003 8.59.028s1.49 1.261 1.402 2.275"/>
    </g>
    <mask id="mask18_5469_9356" width="75" height="24" x="0" y="0" maskUnits="userSpaceOnUse" style="mask-type:luminance">
      <path fill="#fff" d="M74.001 0h-74v23.485h74z"/>
    </mask>
    <g mask="url(#mask18_5469_9356)">
      <path fill="#1313BA" d="M8.77 5.594c.262.216.457.503.562.827.077.301.1.614.068.923z"/>
    </g>
    <mask id="mask19_5469_9356" width="2" height="2" x="17" y="7" maskUnits="userSpaceOnUse" style="mask-type:luminance">
      <path fill="#fff" d="m18.198 8.039.553.684a2.8 2.8 0 0 0-.64-.812 1.8 1.8 0 0 0-.619-.259z"/>
    </mask>
    <g mask="url(#mask19_5469_9356)">
      <path fill="#1313BA" d="m18.254 7.035 1.021 1.266-1.284 1.038-1.023-1.266z"/>
    </g>
    <mask id="mask20_5469_9356" width="2" height="3" x="38" y="9" maskUnits="userSpaceOnUse" style="mask-type:luminance">
      <path fill="#fff" d="m39.023 10.634.06 1.067c.228-1.386-.315-1.967-.315-1.967z"/>
    </mask>
    <g mask="url(#mask20_5469_9356)">
      <path fill="#1313BA" d="m39.222 9.535.807 1.853-1.177.513-.805-1.853z"/>
    </g>
    <mask id="mask21_5469_9356" width="2" height="4" x="38" y="11" maskUnits="userSpaceOnUse" style="mask-type:luminance">
      <path fill="#fff" d="M38.522 14.298c.365-1.05.573-2.148.615-3.259z"/>
    </mask>
    <g mask="url(#mask21_5469_9356)">
      <path fill="#1313BA" d="m39.696 11.139-.577 3.266-1.157-.205.579-3.266z"/>
    </g>
  </g>
</svg>
