<svg width="66" height="24" viewBox="0 0 66 24" fill="none" xmlns="http://www.w3.org/2000/svg">
<path d="M20.9658 7.45703C23.6736 7.45708 25.8008 9.57967 25.8008 12.4736C25.8008 15.3676 23.6736 17.4902 20.9658 17.4902C19.6699 17.4902 18.4899 17.0654 17.8516 16.2744V21.1553H15.3369V7.65039H17.8516V8.80762C18.4899 7.95874 19.7087 7.45703 20.9658 7.45703ZM6.96289 3.59961C10.8117 3.59961 13.9256 6.70563 13.9258 10.5449C13.9258 14.3843 10.7925 17.4912 6.96289 17.4912C3.1333 17.4912 0 14.365 0 10.5449C0.000173588 6.72499 3.1334 3.59964 6.96289 3.59961ZM31.7197 7.45703C34.7369 7.45703 36.575 9.6565 36.5752 12.2803V13.2646H29.2637C29.4958 14.5573 30.4824 15.4639 31.7783 15.4639C32.8224 15.4638 33.6923 14.9626 34.002 14.249H36.459C35.956 15.9659 34.3312 17.4901 31.7979 17.4902C28.7033 17.4902 26.8076 15.3483 26.8076 12.4736C26.8076 9.59905 28.9734 7.45722 31.7197 7.45703ZM43.2666 7.45703C45.4712 7.45713 46.9414 9.03937 46.9414 11.4316V17.2969H44.4268V11.8369C44.4268 10.5443 43.7692 9.6182 42.5508 9.61816C41.2356 9.61816 40.4229 10.6025 40.4229 12.1074V17.2969H37.9092V7.65039H40.4229V8.78906C40.9644 7.95942 42.1448 7.45703 43.2666 7.45703ZM61.8721 17.2969H59.1455L57.9844 14.3447H51.7568L50.5967 17.2969H47.9072L53.3818 3.79102H56.4375L61.8721 17.2969ZM65.4502 3.79102V17.2969H62.8975V3.79102H65.4502ZM20.54 9.6377C19.1089 9.63778 17.832 10.7566 17.832 12.4736C17.832 14.1907 19.1089 15.3095 20.54 15.3096C21.9713 15.3096 23.248 14.1907 23.248 12.4736C23.248 10.7565 21.9713 9.6377 20.54 9.6377ZM6.96289 6.08887C4.58403 6.0889 2.66911 8.03694 2.66895 10.5449C2.66895 13.0531 4.58393 15.0019 6.96289 15.002C9.34188 15.002 11.2568 13.0531 11.2568 10.5449C11.2567 8.03692 9.34178 6.08887 6.96289 6.08887ZM52.627 12.1064H57.0947L54.8711 6.4541L52.627 12.1064ZM31.7783 9.4834C30.5599 9.4834 29.5542 10.274 29.2832 11.4893H34.1768C34.0605 10.3319 33.074 9.48348 31.7783 9.4834Z" fill="#1313BA"/>
</svg>
