<svg width="159" height="35" fill="none" viewBox="0 0 159 35" xmlns="http://www.w3.org/2000/svg">
  <mask id="mask0_76_1581" width="159" height="30" x="0" y="5" maskUnits="userSpaceOnUse" style="mask-type:luminance">
    <path fill="#fff" d="M158.759 5.141h-158v29.63h158z"/>
  </mask>
  <g fill="#888" mask="url(#mask0_76_1581)">
    <path d="M33.709 7.941a32.2 32.2 0 0 0-8.08-2.489 21 21 0 0 0-1.026 2.094 30.9 30.9 0 0 0-8.948 0 26 26 0 0 0-1.027-2.094 31.7 31.7 0 0 0-8.118 2.49 32.53 32.53 0 0 0-5.768 22.18 32.9 32.9 0 0 0 9.876 4.958 22.4 22.4 0 0 0 2.114-3.417 20 20 0 0 1-3.319-1.6l.81-.632a23.11 23.11 0 0 0 19.752 0c.277.217.534.434.83.632a21 21 0 0 1-3.358 1.6 22.5 22.5 0 0 0 2.173 3.417 32.9 32.9 0 0 0 9.876-4.958A32.55 32.55 0 0 0 33.71 7.941M13.64 25.718a3.733 3.733 0 0 1-3.516-3.95 3.713 3.713 0 0 1 3.516-3.95 3.694 3.694 0 0 1 3.516 3.95 3.733 3.733 0 0 1-3.516 3.871zm12.978 0a3.753 3.753 0 0 1-3.516-3.95 3.735 3.735 0 0 1 3.516-3.95 3.693 3.693 0 0 1 3.516 3.95 3.713 3.713 0 0 1-3.516 3.871zm26.547-14.064h8.395c1.76-.05 3.51.274 5.135.948a7.1 7.1 0 0 1 3.141 2.726 7.2 7.2 0 0 1 1.027 3.95 7.1 7.1 0 0 1-1.086 3.951 7.3 7.3 0 0 1-3.299 2.746 13.5 13.5 0 0 1-5.53 1.007h-7.783zm7.703 11.24a4.4 4.4 0 0 0 3.141-1.028 3.6 3.6 0 0 0 1.087-2.785 3.52 3.52 0 0 0-.968-2.607 3.95 3.95 0 0 0-2.963-.988h-2.627v7.407zm23.092 3.812a11.2 11.2 0 0 1-3.14-1.323v-3.575a8.4 8.4 0 0 0 2.824 1.422 12.6 12.6 0 0 0 3.437.513c.398.025.797-.042 1.165-.197.277-.139.395-.296.395-.494a.75.75 0 0 0-.197-.533 2 2 0 0 0-.85-.356l-2.587-.593a6.5 6.5 0 0 1-3.14-1.422 3.22 3.22 0 0 1-.949-2.41 3.18 3.18 0 0 1 .83-2.172 5.25 5.25 0 0 1 2.31-1.422 11.2 11.2 0 0 1 3.536-.514 13.4 13.4 0 0 1 3.319.395 9.2 9.2 0 0 1 2.489.988v3.318a10 10 0 0 0-2.331-1.027c-.89-.23-1.807-.344-2.726-.336-1.343 0-1.975.218-1.975.672a.53.53 0 0 0 .316.494 5.6 5.6 0 0 0 1.145.335l2.153.376a6.44 6.44 0 0 1 3.141 1.284 3.44 3.44 0 0 1 1.027 2.706 3.56 3.56 0 0 1-1.698 3.1 8.65 8.65 0 0 1-4.958 1.245 14.5 14.5 0 0 1-3.536-.474m15.486-.454a6.66 6.66 0 0 1-2.786-2.45 6.76 6.76 0 0 1-.928-3.496 6.24 6.24 0 0 1 .968-3.457 6.6 6.6 0 0 1 2.844-2.41 10.6 10.6 0 0 1 4.464-.869 9.9 9.9 0 0 1 5.373 1.363v3.95a7.2 7.2 0 0 0-1.758-.829 6.9 6.9 0 0 0-2.133-.336 5.9 5.9 0 0 0-3.141.731 2.214 2.214 0 0 0-.81 3.022c.194.337.474.616.81.81a5.73 5.73 0 0 0 3.2.731c.715 0 1.426-.1 2.114-.296a8.5 8.5 0 0 0 1.797-.77v3.812a10.5 10.5 0 0 1-5.491 1.422 10.3 10.3 0 0 1-4.523-.928m15.564 0a6.73 6.73 0 0 1-2.844-2.47 6.56 6.56 0 0 1-.968-3.515 6.26 6.26 0 0 1 .987-3.457 6.6 6.6 0 0 1 2.825-2.37c2.829-1.158 6-1.158 8.829 0a6.5 6.5 0 0 1 2.825 2.37 6.3 6.3 0 0 1 .968 3.457 6.7 6.7 0 0 1-.968 3.516 6.8 6.8 0 0 1-2.825 2.469 11.14 11.14 0 0 1-8.809 0zm6.538-3.812a2.8 2.8 0 0 0 .79-2.094 2.7 2.7 0 0 0-.79-1.975 2.98 2.98 0 0 0-2.133-.751 3.06 3.06 0 0 0-2.173.75 2.8 2.8 0 0 0-.79 1.976 2.9 2.9 0 0 0 .79 2.094 2.98 2.98 0 0 0 2.173.77 2.92 2.92 0 0 0 2.133-.77m19.278-8.08v4.662a3.95 3.95 0 0 0-2.133-.533 3.36 3.36 0 0 0-2.647 1.027 4.84 4.84 0 0 0-.929 3.24v3.95h-5.293V14.143h5.175v3.95a6.6 6.6 0 0 1 1.383-3.238 3.2 3.2 0 0 1 2.469-1.008 3.7 3.7 0 0 1 1.975.514m17.778-3.141v15.506h-5.294V23.9a5.06 5.06 0 0 1-1.975 2.43 6.4 6.4 0 0 1-3.378.83 5.65 5.65 0 0 1-3.18-.87 5.9 5.9 0 0 1-1.975-2.39 8.1 8.1 0 0 1-.79-3.437 7.7 7.7 0 0 1 .79-3.555 5.9 5.9 0 0 1 2.232-2.45 5.9 5.9 0 0 1 3.259-.889 4.94 4.94 0 0 1 5.057 3.28v-5.63zm-6.084 11.12a2.72 2.72 0 0 0 .81-1.975 2.53 2.53 0 0 0-.79-1.975 2.98 2.98 0 0 0-2.133-.75 2.94 2.94 0 0 0-2.134.77 2.57 2.57 0 0 0-.79 1.975 2.66 2.66 0 0 0 .79 1.975 3.28 3.28 0 0 0 4.247 0zm-76.778-7.446c1.516 0 2.745-1.106 2.745-2.47 0-1.363-1.229-2.468-2.745-2.468s-2.746 1.105-2.746 2.469 1.23 2.469 2.746 2.469m2.745 1.698a6.97 6.97 0 0 1-5.49 0v10.133h5.49z"/>
  </g>
</svg>
